<mxfile host="app.diagrams.net" agent="Mozilla/5.0 (Windows NT 10.0; Win64; x64) AppleWebKit/537.36 (KHTML, like Gecko) Chrome/132.0.0.0 Safari/537.36 OPR/117.0.0.0" version="26.2.6" pages="10">
  <diagram name="Use case tong quat" id="Qce_FJ-k6enPiJr1mn_F">
    <mxGraphModel dx="1156" dy="664" grid="0" gridSize="10" guides="1" tooltips="1" connect="1" arrows="1" fold="1" page="1" pageScale="1" pageWidth="850" pageHeight="1100" math="0" shadow="0">
      <root>
        <mxCell id="0" />
        <mxCell id="1" parent="0" />
        <mxCell id="7e84t6_H_URe3ZD-5IFD-2" value="User" style="shape=umlActor;verticalLabelPosition=bottom;verticalAlign=top;html=1;" parent="1" vertex="1">
          <mxGeometry x="46" y="531" width="30" height="60" as="geometry" />
        </mxCell>
        <mxCell id="7e84t6_H_URe3ZD-5IFD-3" value="Admin" style="shape=umlActor;verticalLabelPosition=bottom;verticalAlign=top;html=1;" parent="1" vertex="1">
          <mxGeometry x="773" y="531" width="30" height="60" as="geometry" />
        </mxCell>
        <mxCell id="U3ZNlgoZJZ4aCuAhCm21-2" value="Đăng nhập" style="shape=ellipse;html=1;strokeWidth=3;fontStyle=1;whiteSpace=wrap;align=center;perimeter=ellipsePerimeter;" vertex="1" parent="1">
          <mxGeometry x="381" y="586" width="104" height="44" as="geometry" />
        </mxCell>
        <mxCell id="U3ZNlgoZJZ4aCuAhCm21-3" value="Đăng ký" style="shape=ellipse;html=1;strokeWidth=3;fontStyle=1;whiteSpace=wrap;align=center;perimeter=ellipsePerimeter;" vertex="1" parent="1">
          <mxGeometry x="170" y="342" width="104" height="44" as="geometry" />
        </mxCell>
        <mxCell id="U3ZNlgoZJZ4aCuAhCm21-4" value="Xem phòng" style="shape=ellipse;html=1;strokeWidth=3;fontStyle=1;whiteSpace=wrap;align=center;perimeter=ellipsePerimeter;" vertex="1" parent="1">
          <mxGeometry x="170" y="394" width="104" height="44" as="geometry" />
        </mxCell>
        <mxCell id="U3ZNlgoZJZ4aCuAhCm21-5" value="Tìm kiếm phòng" style="shape=ellipse;html=1;strokeWidth=3;fontStyle=1;whiteSpace=wrap;align=center;perimeter=ellipsePerimeter;" vertex="1" parent="1">
          <mxGeometry x="170" y="446" width="104" height="44" as="geometry" />
        </mxCell>
        <mxCell id="U3ZNlgoZJZ4aCuAhCm21-6" value="Xem danh sách phòng" style="shape=ellipse;html=1;strokeWidth=3;fontStyle=1;whiteSpace=wrap;align=center;perimeter=ellipsePerimeter;" vertex="1" parent="1">
          <mxGeometry x="170" y="498" width="104" height="44" as="geometry" />
        </mxCell>
        <mxCell id="U3ZNlgoZJZ4aCuAhCm21-7" value="Đặt phòng" style="shape=ellipse;html=1;strokeWidth=3;fontStyle=1;whiteSpace=wrap;align=center;perimeter=ellipsePerimeter;" vertex="1" parent="1">
          <mxGeometry x="170" y="554" width="104" height="44" as="geometry" />
        </mxCell>
        <mxCell id="U3ZNlgoZJZ4aCuAhCm21-8" value="Đặt đồ ăn/&lt;div&gt;dịch vụ&lt;/div&gt;" style="shape=ellipse;html=1;strokeWidth=3;fontStyle=1;whiteSpace=wrap;align=center;perimeter=ellipsePerimeter;" vertex="1" parent="1">
          <mxGeometry x="170" y="607" width="104" height="44" as="geometry" />
        </mxCell>
        <mxCell id="U3ZNlgoZJZ4aCuAhCm21-9" value="Để lại bình luận" style="shape=ellipse;html=1;strokeWidth=3;fontStyle=1;whiteSpace=wrap;align=center;perimeter=ellipsePerimeter;" vertex="1" parent="1">
          <mxGeometry x="170" y="831" width="104" height="44" as="geometry" />
        </mxCell>
        <mxCell id="U3ZNlgoZJZ4aCuAhCm21-10" value="Quản lý thông tin cá nhân" style="shape=ellipse;html=1;strokeWidth=3;fontStyle=1;whiteSpace=wrap;align=center;perimeter=ellipsePerimeter;" vertex="1" parent="1">
          <mxGeometry x="170" y="667" width="104" height="44" as="geometry" />
        </mxCell>
        <mxCell id="U3ZNlgoZJZ4aCuAhCm21-11" value="Quản lý bookings của mình" style="shape=ellipse;html=1;strokeWidth=3;fontStyle=1;whiteSpace=wrap;align=center;perimeter=ellipsePerimeter;" vertex="1" parent="1">
          <mxGeometry x="170" y="719" width="104" height="44" as="geometry" />
        </mxCell>
        <mxCell id="U3ZNlgoZJZ4aCuAhCm21-12" value="Quản lý orders của mình" style="shape=ellipse;html=1;strokeWidth=3;fontStyle=1;whiteSpace=wrap;align=center;perimeter=ellipsePerimeter;" vertex="1" parent="1">
          <mxGeometry x="168" y="775" width="104" height="44" as="geometry" />
        </mxCell>
        <mxCell id="U3ZNlgoZJZ4aCuAhCm21-13" value="" style="endArrow=none;html=1;rounded=0;entryX=0;entryY=0.5;entryDx=0;entryDy=0;" edge="1" parent="1" source="7e84t6_H_URe3ZD-5IFD-2" target="U3ZNlgoZJZ4aCuAhCm21-3">
          <mxGeometry width="50" height="50" relative="1" as="geometry">
            <mxPoint x="93" y="556" as="sourcePoint" />
            <mxPoint x="143" y="506" as="targetPoint" />
          </mxGeometry>
        </mxCell>
        <mxCell id="U3ZNlgoZJZ4aCuAhCm21-14" value="" style="endArrow=none;html=1;rounded=0;entryX=0;entryY=0.5;entryDx=0;entryDy=0;" edge="1" parent="1" source="7e84t6_H_URe3ZD-5IFD-2" target="U3ZNlgoZJZ4aCuAhCm21-4">
          <mxGeometry width="50" height="50" relative="1" as="geometry">
            <mxPoint x="86" y="544" as="sourcePoint" />
            <mxPoint x="180" y="374" as="targetPoint" />
          </mxGeometry>
        </mxCell>
        <mxCell id="U3ZNlgoZJZ4aCuAhCm21-15" value="" style="endArrow=none;html=1;rounded=0;entryX=0;entryY=0.5;entryDx=0;entryDy=0;exitX=1;exitY=0.3333333333333333;exitDx=0;exitDy=0;exitPerimeter=0;" edge="1" parent="1" source="7e84t6_H_URe3ZD-5IFD-2" target="U3ZNlgoZJZ4aCuAhCm21-5">
          <mxGeometry width="50" height="50" relative="1" as="geometry">
            <mxPoint x="96" y="554" as="sourcePoint" />
            <mxPoint x="190" y="384" as="targetPoint" />
          </mxGeometry>
        </mxCell>
        <mxCell id="U3ZNlgoZJZ4aCuAhCm21-16" value="" style="endArrow=none;html=1;rounded=0;entryX=0;entryY=0.5;entryDx=0;entryDy=0;exitX=0.628;exitY=0.403;exitDx=0;exitDy=0;exitPerimeter=0;" edge="1" parent="1" source="7e84t6_H_URe3ZD-5IFD-2" target="U3ZNlgoZJZ4aCuAhCm21-6">
          <mxGeometry width="50" height="50" relative="1" as="geometry">
            <mxPoint x="86" y="561" as="sourcePoint" />
            <mxPoint x="180" y="478" as="targetPoint" />
          </mxGeometry>
        </mxCell>
        <mxCell id="U3ZNlgoZJZ4aCuAhCm21-17" value="" style="endArrow=none;html=1;rounded=0;entryX=0.071;entryY=0.348;entryDx=0;entryDy=0;exitX=0.544;exitY=0.417;exitDx=0;exitDy=0;exitPerimeter=0;entryPerimeter=0;" edge="1" parent="1" source="7e84t6_H_URe3ZD-5IFD-2" target="U3ZNlgoZJZ4aCuAhCm21-7">
          <mxGeometry width="50" height="50" relative="1" as="geometry">
            <mxPoint x="75" y="565" as="sourcePoint" />
            <mxPoint x="180" y="530" as="targetPoint" />
          </mxGeometry>
        </mxCell>
        <mxCell id="U3ZNlgoZJZ4aCuAhCm21-18" value="" style="endArrow=none;html=1;rounded=0;entryX=0;entryY=0.5;entryDx=0;entryDy=0;exitX=0.489;exitY=0.417;exitDx=0;exitDy=0;exitPerimeter=0;" edge="1" parent="1" source="7e84t6_H_URe3ZD-5IFD-2" target="U3ZNlgoZJZ4aCuAhCm21-8">
          <mxGeometry width="50" height="50" relative="1" as="geometry">
            <mxPoint x="72" y="566" as="sourcePoint" />
            <mxPoint x="187" y="579" as="targetPoint" />
          </mxGeometry>
        </mxCell>
        <mxCell id="U3ZNlgoZJZ4aCuAhCm21-19" value="" style="endArrow=none;html=1;rounded=0;entryX=0;entryY=0.295;entryDx=0;entryDy=0;exitX=0.544;exitY=0.194;exitDx=0;exitDy=0;exitPerimeter=0;entryPerimeter=0;" edge="1" parent="1" source="7e84t6_H_URe3ZD-5IFD-2" target="U3ZNlgoZJZ4aCuAhCm21-10">
          <mxGeometry width="50" height="50" relative="1" as="geometry">
            <mxPoint x="71" y="566" as="sourcePoint" />
            <mxPoint x="180" y="639" as="targetPoint" />
          </mxGeometry>
        </mxCell>
        <mxCell id="U3ZNlgoZJZ4aCuAhCm21-20" value="" style="endArrow=none;html=1;rounded=0;entryX=0;entryY=0.5;entryDx=0;entryDy=0;exitX=0.6;exitY=0.722;exitDx=0;exitDy=0;exitPerimeter=0;" edge="1" parent="1" source="7e84t6_H_URe3ZD-5IFD-2" target="U3ZNlgoZJZ4aCuAhCm21-11">
          <mxGeometry width="50" height="50" relative="1" as="geometry">
            <mxPoint x="72" y="553" as="sourcePoint" />
            <mxPoint x="180" y="690" as="targetPoint" />
          </mxGeometry>
        </mxCell>
        <mxCell id="U3ZNlgoZJZ4aCuAhCm21-21" value="" style="endArrow=none;html=1;rounded=0;entryX=0;entryY=0.5;entryDx=0;entryDy=0;" edge="1" parent="1" source="7e84t6_H_URe3ZD-5IFD-2" target="U3ZNlgoZJZ4aCuAhCm21-12">
          <mxGeometry width="50" height="50" relative="1" as="geometry">
            <mxPoint x="74" y="584" as="sourcePoint" />
            <mxPoint x="180" y="751" as="targetPoint" />
          </mxGeometry>
        </mxCell>
        <mxCell id="U3ZNlgoZJZ4aCuAhCm21-22" value="" style="endArrow=none;html=1;rounded=0;entryX=0;entryY=0.5;entryDx=0;entryDy=0;exitX=0.572;exitY=0.639;exitDx=0;exitDy=0;exitPerimeter=0;" edge="1" parent="1" source="7e84t6_H_URe3ZD-5IFD-2" target="U3ZNlgoZJZ4aCuAhCm21-9">
          <mxGeometry width="50" height="50" relative="1" as="geometry">
            <mxPoint x="85" y="601" as="sourcePoint" />
            <mxPoint x="178" y="807" as="targetPoint" />
          </mxGeometry>
        </mxCell>
        <mxCell id="U3ZNlgoZJZ4aCuAhCm21-23" value="&amp;lt;&amp;lt;include&amp;gt;&amp;gt;" style="edgeStyle=none;html=1;endArrow=open;verticalAlign=bottom;dashed=1;labelBackgroundColor=none;rounded=0;exitX=1;exitY=0.5;exitDx=0;exitDy=0;entryX=0;entryY=0.5;entryDx=0;entryDy=0;" edge="1" parent="1" source="U3ZNlgoZJZ4aCuAhCm21-7" target="U3ZNlgoZJZ4aCuAhCm21-2">
          <mxGeometry width="160" relative="1" as="geometry">
            <mxPoint x="350" y="572" as="sourcePoint" />
            <mxPoint x="510" y="572" as="targetPoint" />
          </mxGeometry>
        </mxCell>
        <mxCell id="U3ZNlgoZJZ4aCuAhCm21-24" value="&amp;lt;&amp;lt;include&amp;gt;&amp;gt;" style="edgeStyle=none;html=1;endArrow=open;verticalAlign=bottom;dashed=1;labelBackgroundColor=none;rounded=0;exitX=1;exitY=0.5;exitDx=0;exitDy=0;entryX=0;entryY=0.5;entryDx=0;entryDy=0;" edge="1" parent="1" source="U3ZNlgoZJZ4aCuAhCm21-8" target="U3ZNlgoZJZ4aCuAhCm21-2">
          <mxGeometry width="160" relative="1" as="geometry">
            <mxPoint x="284" y="586" as="sourcePoint" />
            <mxPoint x="391" y="618" as="targetPoint" />
          </mxGeometry>
        </mxCell>
        <mxCell id="U3ZNlgoZJZ4aCuAhCm21-25" value="&amp;lt;&amp;lt;include&amp;gt;&amp;gt;" style="edgeStyle=none;html=1;endArrow=open;verticalAlign=bottom;dashed=1;labelBackgroundColor=none;rounded=0;exitX=0.984;exitY=0.356;exitDx=0;exitDy=0;entryX=0;entryY=0.5;entryDx=0;entryDy=0;exitPerimeter=0;" edge="1" parent="1" source="U3ZNlgoZJZ4aCuAhCm21-10" target="U3ZNlgoZJZ4aCuAhCm21-2">
          <mxGeometry width="160" relative="1" as="geometry">
            <mxPoint x="284" y="639" as="sourcePoint" />
            <mxPoint x="391" y="618" as="targetPoint" />
          </mxGeometry>
        </mxCell>
        <mxCell id="U3ZNlgoZJZ4aCuAhCm21-26" value="&amp;lt;&amp;lt;include&amp;gt;&amp;gt;" style="edgeStyle=none;html=1;endArrow=open;verticalAlign=bottom;dashed=1;labelBackgroundColor=none;rounded=0;exitX=1;exitY=0.364;exitDx=0;exitDy=0;entryX=0;entryY=0.5;entryDx=0;entryDy=0;exitPerimeter=0;" edge="1" parent="1" source="U3ZNlgoZJZ4aCuAhCm21-11" target="U3ZNlgoZJZ4aCuAhCm21-2">
          <mxGeometry width="160" relative="1" as="geometry">
            <mxPoint x="282" y="693" as="sourcePoint" />
            <mxPoint x="391" y="618" as="targetPoint" />
          </mxGeometry>
        </mxCell>
        <mxCell id="U3ZNlgoZJZ4aCuAhCm21-27" value="&amp;lt;&amp;lt;include&amp;gt;&amp;gt;" style="edgeStyle=none;html=1;endArrow=open;verticalAlign=bottom;dashed=1;labelBackgroundColor=none;rounded=0;exitX=1.003;exitY=0.345;exitDx=0;exitDy=0;entryX=0;entryY=0.5;entryDx=0;entryDy=0;exitPerimeter=0;" edge="1" parent="1" source="U3ZNlgoZJZ4aCuAhCm21-12" target="U3ZNlgoZJZ4aCuAhCm21-2">
          <mxGeometry width="160" relative="1" as="geometry">
            <mxPoint x="284" y="745" as="sourcePoint" />
            <mxPoint x="391" y="618" as="targetPoint" />
          </mxGeometry>
        </mxCell>
        <mxCell id="U3ZNlgoZJZ4aCuAhCm21-28" value="&amp;lt;&amp;lt;include&amp;gt;&amp;gt;" style="edgeStyle=none;html=1;endArrow=open;verticalAlign=bottom;dashed=1;labelBackgroundColor=none;rounded=0;exitX=1;exitY=0.5;exitDx=0;exitDy=0;" edge="1" parent="1" source="U3ZNlgoZJZ4aCuAhCm21-9">
          <mxGeometry width="160" relative="1" as="geometry">
            <mxPoint x="282" y="800" as="sourcePoint" />
            <mxPoint x="382" y="609" as="targetPoint" />
          </mxGeometry>
        </mxCell>
        <mxCell id="U3ZNlgoZJZ4aCuAhCm21-29" value="Khướu nại tài khoản" style="shape=ellipse;html=1;strokeWidth=3;fontStyle=1;whiteSpace=wrap;align=center;perimeter=ellipsePerimeter;" vertex="1" parent="1">
          <mxGeometry x="168" y="885" width="104" height="44" as="geometry" />
        </mxCell>
        <mxCell id="U3ZNlgoZJZ4aCuAhCm21-30" value="" style="endArrow=none;html=1;rounded=0;entryX=0;entryY=0.5;entryDx=0;entryDy=0;exitX=0.5;exitY=0.5;exitDx=0;exitDy=0;exitPerimeter=0;" edge="1" parent="1" source="7e84t6_H_URe3ZD-5IFD-2" target="U3ZNlgoZJZ4aCuAhCm21-29">
          <mxGeometry width="50" height="50" relative="1" as="geometry">
            <mxPoint x="73" y="579" as="sourcePoint" />
            <mxPoint x="180" y="863" as="targetPoint" />
          </mxGeometry>
        </mxCell>
        <mxCell id="U3ZNlgoZJZ4aCuAhCm21-31" value="&amp;lt;&amp;lt;include&amp;gt;&amp;gt;" style="edgeStyle=none;html=1;endArrow=open;verticalAlign=bottom;dashed=1;labelBackgroundColor=none;rounded=0;exitX=0.995;exitY=0.25;exitDx=0;exitDy=0;exitPerimeter=0;entryX=-0.019;entryY=0.625;entryDx=0;entryDy=0;entryPerimeter=0;" edge="1" parent="1" source="U3ZNlgoZJZ4aCuAhCm21-29" target="U3ZNlgoZJZ4aCuAhCm21-2">
          <mxGeometry width="160" relative="1" as="geometry">
            <mxPoint x="284" y="863" as="sourcePoint" />
            <mxPoint x="392" y="619" as="targetPoint" />
          </mxGeometry>
        </mxCell>
        <mxCell id="U3ZNlgoZJZ4aCuAhCm21-32" value="Thống kê" style="shape=ellipse;html=1;strokeWidth=3;fontStyle=1;whiteSpace=wrap;align=center;perimeter=ellipsePerimeter;" vertex="1" parent="1">
          <mxGeometry x="631" y="342" width="104" height="44" as="geometry" />
        </mxCell>
        <mxCell id="U3ZNlgoZJZ4aCuAhCm21-33" value="Quản lý phòng" style="shape=ellipse;html=1;strokeWidth=3;fontStyle=1;whiteSpace=wrap;align=center;perimeter=ellipsePerimeter;" vertex="1" parent="1">
          <mxGeometry x="631" y="396" width="104" height="44" as="geometry" />
        </mxCell>
        <mxCell id="U3ZNlgoZJZ4aCuAhCm21-34" value="Quản lý loại phòng" style="shape=ellipse;html=1;strokeWidth=3;fontStyle=1;whiteSpace=wrap;align=center;perimeter=ellipsePerimeter;" vertex="1" parent="1">
          <mxGeometry x="631" y="450" width="104" height="44" as="geometry" />
        </mxCell>
        <mxCell id="U3ZNlgoZJZ4aCuAhCm21-35" value="Quản lý&amp;nbsp;&lt;div&gt;tiện nghi&lt;/div&gt;" style="shape=ellipse;html=1;strokeWidth=3;fontStyle=1;whiteSpace=wrap;align=center;perimeter=ellipsePerimeter;" vertex="1" parent="1">
          <mxGeometry x="631" y="502" width="104" height="44" as="geometry" />
        </mxCell>
        <mxCell id="U3ZNlgoZJZ4aCuAhCm21-36" value="Quản lý order" style="shape=ellipse;html=1;strokeWidth=3;fontStyle=1;whiteSpace=wrap;align=center;perimeter=ellipsePerimeter;" vertex="1" parent="1">
          <mxGeometry x="631" y="554" width="104" height="44" as="geometry" />
        </mxCell>
        <mxCell id="U3ZNlgoZJZ4aCuAhCm21-37" value="Quản lý order item" style="shape=ellipse;html=1;strokeWidth=3;fontStyle=1;whiteSpace=wrap;align=center;perimeter=ellipsePerimeter;" vertex="1" parent="1">
          <mxGeometry x="631" y="607" width="104" height="44" as="geometry" />
        </mxCell>
        <mxCell id="U3ZNlgoZJZ4aCuAhCm21-38" value="Quản lý booking" style="shape=ellipse;html=1;strokeWidth=3;fontStyle=1;whiteSpace=wrap;align=center;perimeter=ellipsePerimeter;" vertex="1" parent="1">
          <mxGeometry x="631" y="660" width="104" height="44" as="geometry" />
        </mxCell>
        <mxCell id="U3ZNlgoZJZ4aCuAhCm21-39" value="Quản lý user" style="shape=ellipse;html=1;strokeWidth=3;fontStyle=1;whiteSpace=wrap;align=center;perimeter=ellipsePerimeter;" vertex="1" parent="1">
          <mxGeometry x="631" y="719" width="104" height="44" as="geometry" />
        </mxCell>
        <mxCell id="U3ZNlgoZJZ4aCuAhCm21-40" value="Quản lý khướu nại" style="shape=ellipse;html=1;strokeWidth=3;fontStyle=1;whiteSpace=wrap;align=center;perimeter=ellipsePerimeter;" vertex="1" parent="1">
          <mxGeometry x="631" y="775" width="104" height="44" as="geometry" />
        </mxCell>
        <mxCell id="U3ZNlgoZJZ4aCuAhCm21-41" value="Quản lý nhân viên" style="shape=ellipse;html=1;strokeWidth=3;fontStyle=1;whiteSpace=wrap;align=center;perimeter=ellipsePerimeter;" vertex="1" parent="1">
          <mxGeometry x="631" y="831" width="104" height="44" as="geometry" />
        </mxCell>
        <mxCell id="U3ZNlgoZJZ4aCuAhCm21-42" value="&amp;lt;&amp;lt;include&amp;gt;&amp;gt;" style="edgeStyle=none;html=1;endArrow=open;verticalAlign=bottom;dashed=1;labelBackgroundColor=none;rounded=0;exitX=0;exitY=0.5;exitDx=0;exitDy=0;entryX=1;entryY=0.5;entryDx=0;entryDy=0;" edge="1" parent="1" source="U3ZNlgoZJZ4aCuAhCm21-32" target="U3ZNlgoZJZ4aCuAhCm21-2">
          <mxGeometry width="160" relative="1" as="geometry">
            <mxPoint x="281" y="906" as="sourcePoint" />
            <mxPoint x="389" y="624" as="targetPoint" />
          </mxGeometry>
        </mxCell>
        <mxCell id="U3ZNlgoZJZ4aCuAhCm21-43" value="&amp;lt;&amp;lt;include&amp;gt;&amp;gt;" style="edgeStyle=none;html=1;endArrow=open;verticalAlign=bottom;dashed=1;labelBackgroundColor=none;rounded=0;exitX=0;exitY=0.5;exitDx=0;exitDy=0;" edge="1" parent="1" source="U3ZNlgoZJZ4aCuAhCm21-33">
          <mxGeometry width="160" relative="1" as="geometry">
            <mxPoint x="641" y="374" as="sourcePoint" />
            <mxPoint x="484" y="608" as="targetPoint" />
          </mxGeometry>
        </mxCell>
        <mxCell id="U3ZNlgoZJZ4aCuAhCm21-44" value="&amp;lt;&amp;lt;include&amp;gt;&amp;gt;" style="edgeStyle=none;html=1;endArrow=open;verticalAlign=bottom;dashed=1;labelBackgroundColor=none;rounded=0;exitX=0;exitY=0.5;exitDx=0;exitDy=0;" edge="1" parent="1" source="U3ZNlgoZJZ4aCuAhCm21-34">
          <mxGeometry width="160" relative="1" as="geometry">
            <mxPoint x="641" y="428" as="sourcePoint" />
            <mxPoint x="485" y="607" as="targetPoint" />
          </mxGeometry>
        </mxCell>
        <mxCell id="U3ZNlgoZJZ4aCuAhCm21-45" value="&amp;lt;&amp;lt;include&amp;gt;&amp;gt;" style="edgeStyle=none;html=1;endArrow=open;verticalAlign=bottom;dashed=1;labelBackgroundColor=none;rounded=0;exitX=0;exitY=0.5;exitDx=0;exitDy=0;" edge="1" parent="1" source="U3ZNlgoZJZ4aCuAhCm21-35">
          <mxGeometry width="160" relative="1" as="geometry">
            <mxPoint x="641" y="482" as="sourcePoint" />
            <mxPoint x="487" y="602" as="targetPoint" />
          </mxGeometry>
        </mxCell>
        <mxCell id="U3ZNlgoZJZ4aCuAhCm21-46" value="&amp;lt;&amp;lt;include&amp;gt;&amp;gt;" style="edgeStyle=none;html=1;endArrow=open;verticalAlign=bottom;dashed=1;labelBackgroundColor=none;rounded=0;exitX=0;exitY=0.5;exitDx=0;exitDy=0;" edge="1" parent="1" source="U3ZNlgoZJZ4aCuAhCm21-36">
          <mxGeometry width="160" relative="1" as="geometry">
            <mxPoint x="641" y="534" as="sourcePoint" />
            <mxPoint x="489" y="601" as="targetPoint" />
          </mxGeometry>
        </mxCell>
        <mxCell id="U3ZNlgoZJZ4aCuAhCm21-47" value="&amp;lt;&amp;lt;include&amp;gt;&amp;gt;" style="edgeStyle=none;html=1;endArrow=open;verticalAlign=bottom;dashed=1;labelBackgroundColor=none;rounded=0;exitX=0;exitY=0.5;exitDx=0;exitDy=0;" edge="1" parent="1" source="U3ZNlgoZJZ4aCuAhCm21-37">
          <mxGeometry width="160" relative="1" as="geometry">
            <mxPoint x="641" y="586" as="sourcePoint" />
            <mxPoint x="491" y="605" as="targetPoint" />
          </mxGeometry>
        </mxCell>
        <mxCell id="U3ZNlgoZJZ4aCuAhCm21-48" value="&amp;lt;&amp;lt;include&amp;gt;&amp;gt;" style="edgeStyle=none;html=1;endArrow=open;verticalAlign=bottom;dashed=1;labelBackgroundColor=none;rounded=0;exitX=0;exitY=0.5;exitDx=0;exitDy=0;" edge="1" parent="1" source="U3ZNlgoZJZ4aCuAhCm21-38">
          <mxGeometry width="160" relative="1" as="geometry">
            <mxPoint x="641" y="639" as="sourcePoint" />
            <mxPoint x="490" y="604" as="targetPoint" />
          </mxGeometry>
        </mxCell>
        <mxCell id="U3ZNlgoZJZ4aCuAhCm21-49" value="&amp;lt;&amp;lt;include&amp;gt;&amp;gt;" style="edgeStyle=none;html=1;endArrow=open;verticalAlign=bottom;dashed=1;labelBackgroundColor=none;rounded=0;" edge="1" parent="1">
          <mxGeometry width="160" relative="1" as="geometry">
            <mxPoint x="626" y="735" as="sourcePoint" />
            <mxPoint x="486" y="606" as="targetPoint" />
          </mxGeometry>
        </mxCell>
        <mxCell id="U3ZNlgoZJZ4aCuAhCm21-50" value="&amp;lt;&amp;lt;include&amp;gt;&amp;gt;" style="edgeStyle=none;html=1;endArrow=open;verticalAlign=bottom;dashed=1;labelBackgroundColor=none;rounded=0;entryX=1;entryY=0.5;entryDx=0;entryDy=0;" edge="1" parent="1" target="U3ZNlgoZJZ4aCuAhCm21-2">
          <mxGeometry width="160" relative="1" as="geometry">
            <mxPoint x="630" y="792" as="sourcePoint" />
            <mxPoint x="496" y="616" as="targetPoint" />
          </mxGeometry>
        </mxCell>
        <mxCell id="U3ZNlgoZJZ4aCuAhCm21-51" value="&amp;lt;&amp;lt;include&amp;gt;&amp;gt;" style="edgeStyle=none;html=1;endArrow=open;verticalAlign=bottom;dashed=1;labelBackgroundColor=none;rounded=0;" edge="1" parent="1">
          <mxGeometry width="160" relative="1" as="geometry">
            <mxPoint x="629" y="852" as="sourcePoint" />
            <mxPoint x="485" y="609" as="targetPoint" />
          </mxGeometry>
        </mxCell>
        <mxCell id="U3ZNlgoZJZ4aCuAhCm21-52" value="" style="endArrow=none;html=1;rounded=0;entryX=1;entryY=0.5;entryDx=0;entryDy=0;exitX=0.5;exitY=0.5;exitDx=0;exitDy=0;exitPerimeter=0;" edge="1" parent="1" source="7e84t6_H_URe3ZD-5IFD-3" target="U3ZNlgoZJZ4aCuAhCm21-32">
          <mxGeometry width="50" height="50" relative="1" as="geometry">
            <mxPoint x="86" y="561" as="sourcePoint" />
            <mxPoint x="180" y="478" as="targetPoint" />
          </mxGeometry>
        </mxCell>
        <mxCell id="U3ZNlgoZJZ4aCuAhCm21-53" value="" style="endArrow=none;html=1;rounded=0;entryX=1;entryY=0.5;entryDx=0;entryDy=0;" edge="1" parent="1" target="U3ZNlgoZJZ4aCuAhCm21-33">
          <mxGeometry width="50" height="50" relative="1" as="geometry">
            <mxPoint x="788" y="557" as="sourcePoint" />
            <mxPoint x="745" y="374" as="targetPoint" />
          </mxGeometry>
        </mxCell>
        <mxCell id="U3ZNlgoZJZ4aCuAhCm21-54" value="" style="endArrow=none;html=1;rounded=0;entryX=1;entryY=0.5;entryDx=0;entryDy=0;" edge="1" parent="1" target="U3ZNlgoZJZ4aCuAhCm21-34">
          <mxGeometry width="50" height="50" relative="1" as="geometry">
            <mxPoint x="788" y="559" as="sourcePoint" />
            <mxPoint x="745" y="428" as="targetPoint" />
          </mxGeometry>
        </mxCell>
        <mxCell id="U3ZNlgoZJZ4aCuAhCm21-55" value="" style="endArrow=none;html=1;rounded=0;entryX=1;entryY=0.5;entryDx=0;entryDy=0;" edge="1" parent="1" target="U3ZNlgoZJZ4aCuAhCm21-35">
          <mxGeometry width="50" height="50" relative="1" as="geometry">
            <mxPoint x="787" y="561" as="sourcePoint" />
            <mxPoint x="745" y="482" as="targetPoint" />
          </mxGeometry>
        </mxCell>
        <mxCell id="U3ZNlgoZJZ4aCuAhCm21-56" value="" style="endArrow=none;html=1;rounded=0;entryX=1;entryY=0.5;entryDx=0;entryDy=0;exitX=0.5;exitY=0.5;exitDx=0;exitDy=0;exitPerimeter=0;" edge="1" parent="1" source="7e84t6_H_URe3ZD-5IFD-3" target="U3ZNlgoZJZ4aCuAhCm21-36">
          <mxGeometry width="50" height="50" relative="1" as="geometry">
            <mxPoint x="797" y="571" as="sourcePoint" />
            <mxPoint x="745" y="534" as="targetPoint" />
          </mxGeometry>
        </mxCell>
        <mxCell id="U3ZNlgoZJZ4aCuAhCm21-57" value="" style="endArrow=none;html=1;rounded=0;entryX=0.982;entryY=0.337;entryDx=0;entryDy=0;exitX=0.5;exitY=0.5;exitDx=0;exitDy=0;exitPerimeter=0;entryPerimeter=0;" edge="1" parent="1" source="7e84t6_H_URe3ZD-5IFD-3" target="U3ZNlgoZJZ4aCuAhCm21-37">
          <mxGeometry width="50" height="50" relative="1" as="geometry">
            <mxPoint x="798" y="571" as="sourcePoint" />
            <mxPoint x="745" y="586" as="targetPoint" />
          </mxGeometry>
        </mxCell>
        <mxCell id="U3ZNlgoZJZ4aCuAhCm21-58" value="" style="endArrow=none;html=1;rounded=0;entryX=0.99;entryY=0.364;entryDx=0;entryDy=0;exitX=0.5;exitY=0.5;exitDx=0;exitDy=0;exitPerimeter=0;entryPerimeter=0;" edge="1" parent="1" source="7e84t6_H_URe3ZD-5IFD-3" target="U3ZNlgoZJZ4aCuAhCm21-38">
          <mxGeometry width="50" height="50" relative="1" as="geometry">
            <mxPoint x="798" y="571" as="sourcePoint" />
            <mxPoint x="743" y="632" as="targetPoint" />
          </mxGeometry>
        </mxCell>
        <mxCell id="U3ZNlgoZJZ4aCuAhCm21-59" value="" style="endArrow=none;html=1;rounded=0;entryX=1;entryY=0.341;entryDx=0;entryDy=0;entryPerimeter=0;" edge="1" parent="1" target="U3ZNlgoZJZ4aCuAhCm21-39">
          <mxGeometry width="50" height="50" relative="1" as="geometry">
            <mxPoint x="786" y="569" as="sourcePoint" />
            <mxPoint x="744" y="686" as="targetPoint" />
          </mxGeometry>
        </mxCell>
        <mxCell id="U3ZNlgoZJZ4aCuAhCm21-60" value="" style="endArrow=none;html=1;rounded=0;entryX=1;entryY=0.5;entryDx=0;entryDy=0;exitX=0.506;exitY=0.597;exitDx=0;exitDy=0;exitPerimeter=0;" edge="1" parent="1" source="7e84t6_H_URe3ZD-5IFD-3" target="U3ZNlgoZJZ4aCuAhCm21-40">
          <mxGeometry width="50" height="50" relative="1" as="geometry">
            <mxPoint x="796" y="579" as="sourcePoint" />
            <mxPoint x="745" y="744" as="targetPoint" />
          </mxGeometry>
        </mxCell>
        <mxCell id="U3ZNlgoZJZ4aCuAhCm21-61" value="" style="endArrow=none;html=1;rounded=0;entryX=0.99;entryY=0.379;entryDx=0;entryDy=0;exitX=0.533;exitY=0.667;exitDx=0;exitDy=0;exitPerimeter=0;entryPerimeter=0;" edge="1" parent="1" source="7e84t6_H_URe3ZD-5IFD-3" target="U3ZNlgoZJZ4aCuAhCm21-41">
          <mxGeometry width="50" height="50" relative="1" as="geometry">
            <mxPoint x="798" y="577" as="sourcePoint" />
            <mxPoint x="745" y="807" as="targetPoint" />
          </mxGeometry>
        </mxCell>
      </root>
    </mxGraphModel>
  </diagram>
  <diagram id="UgIXf2w944hNfpP9WRst" name="use case room">
    <mxGraphModel dx="1387" dy="797" grid="0" gridSize="10" guides="1" tooltips="1" connect="1" arrows="1" fold="1" page="1" pageScale="1" pageWidth="850" pageHeight="1100" math="0" shadow="0">
      <root>
        <mxCell id="0" />
        <mxCell id="1" parent="0" />
        <mxCell id="gyJwGBwvKr9J1ihpc6oP-1" value="Admin" style="shape=umlActor;verticalLabelPosition=bottom;verticalAlign=top;html=1;outlineConnect=0;" vertex="1" parent="1">
          <mxGeometry x="171" y="259" width="30" height="60" as="geometry" />
        </mxCell>
        <mxCell id="gyJwGBwvKr9J1ihpc6oP-2" value="Quản lý tiện nghi" style="ellipse;whiteSpace=wrap;html=1;" vertex="1" parent="1">
          <mxGeometry x="338" y="254" width="140" height="70" as="geometry" />
        </mxCell>
        <mxCell id="gyJwGBwvKr9J1ihpc6oP-3" value="" style="endArrow=none;html=1;rounded=0;entryX=0;entryY=0.5;entryDx=0;entryDy=0;" edge="1" parent="1" source="gyJwGBwvKr9J1ihpc6oP-1" target="gyJwGBwvKr9J1ihpc6oP-2">
          <mxGeometry width="50" height="50" relative="1" as="geometry">
            <mxPoint x="400" y="436" as="sourcePoint" />
            <mxPoint x="450" y="386" as="targetPoint" />
          </mxGeometry>
        </mxCell>
        <mxCell id="VUy8_CutUVJiTHG8y4NO-1" value="Đăng nhập" style="ellipse;whiteSpace=wrap;html=1;" vertex="1" parent="1">
          <mxGeometry x="265" y="115" width="140" height="70" as="geometry" />
        </mxCell>
        <mxCell id="VUy8_CutUVJiTHG8y4NO-2" value="&amp;lt;&amp;lt;include&amp;gt;&amp;gt;" style="edgeStyle=none;html=1;endArrow=open;verticalAlign=bottom;dashed=1;labelBackgroundColor=none;rounded=0;exitX=0.279;exitY=0.071;exitDx=0;exitDy=0;exitPerimeter=0;entryX=0.5;entryY=1;entryDx=0;entryDy=0;" edge="1" parent="1" source="gyJwGBwvKr9J1ihpc6oP-2" target="VUy8_CutUVJiTHG8y4NO-1">
          <mxGeometry width="160" relative="1" as="geometry">
            <mxPoint x="345" y="411" as="sourcePoint" />
            <mxPoint x="505" y="411" as="targetPoint" />
          </mxGeometry>
        </mxCell>
        <mxCell id="VUy8_CutUVJiTHG8y4NO-4" value="Tìm kiếm tiện nghi" style="ellipse;whiteSpace=wrap;html=1;" vertex="1" parent="1">
          <mxGeometry x="503" y="171" width="140" height="70" as="geometry" />
        </mxCell>
        <mxCell id="VUy8_CutUVJiTHG8y4NO-5" value="Thêm tiện nghi" style="ellipse;whiteSpace=wrap;html=1;" vertex="1" parent="1">
          <mxGeometry x="579" y="293" width="140" height="70" as="geometry" />
        </mxCell>
        <mxCell id="VUy8_CutUVJiTHG8y4NO-6" value="Sửa tiện nghi" style="ellipse;whiteSpace=wrap;html=1;" vertex="1" parent="1">
          <mxGeometry x="510" y="382" width="140" height="70" as="geometry" />
        </mxCell>
        <mxCell id="VUy8_CutUVJiTHG8y4NO-7" value="Xóa tiện nghi" style="ellipse;whiteSpace=wrap;html=1;" vertex="1" parent="1">
          <mxGeometry x="351" y="420" width="140" height="70" as="geometry" />
        </mxCell>
        <mxCell id="VUy8_CutUVJiTHG8y4NO-9" value="&amp;lt;&amp;lt;extend&amp;gt;&amp;gt;" style="edgeStyle=none;html=1;startArrow=open;endArrow=none;startSize=12;verticalAlign=bottom;dashed=1;labelBackgroundColor=none;rounded=0;entryX=0;entryY=0.5;entryDx=0;entryDy=0;exitX=0.936;exitY=0.243;exitDx=0;exitDy=0;exitPerimeter=0;" edge="1" parent="1" source="gyJwGBwvKr9J1ihpc6oP-2" target="VUy8_CutUVJiTHG8y4NO-4">
          <mxGeometry width="160" relative="1" as="geometry">
            <mxPoint x="458" y="270" as="sourcePoint" />
            <mxPoint x="526" y="185" as="targetPoint" />
          </mxGeometry>
        </mxCell>
        <mxCell id="VUy8_CutUVJiTHG8y4NO-10" value="&amp;lt;&amp;lt;extend&amp;gt;&amp;gt;" style="edgeStyle=none;html=1;startArrow=open;endArrow=none;startSize=12;verticalAlign=bottom;dashed=1;labelBackgroundColor=none;rounded=0;entryX=0;entryY=0.5;entryDx=0;entryDy=0;exitX=1;exitY=0.5;exitDx=0;exitDy=0;" edge="1" parent="1" source="gyJwGBwvKr9J1ihpc6oP-2" target="VUy8_CutUVJiTHG8y4NO-5">
          <mxGeometry width="160" relative="1" as="geometry">
            <mxPoint x="479" y="281" as="sourcePoint" />
            <mxPoint x="576" y="249" as="targetPoint" />
          </mxGeometry>
        </mxCell>
        <mxCell id="VUy8_CutUVJiTHG8y4NO-11" value="&amp;lt;&amp;lt;extend&amp;gt;&amp;gt;" style="edgeStyle=none;html=1;startArrow=open;endArrow=none;startSize=12;verticalAlign=bottom;dashed=1;labelBackgroundColor=none;rounded=0;entryX=0.264;entryY=0;entryDx=0;entryDy=0;exitX=0.979;exitY=0.643;exitDx=0;exitDy=0;entryPerimeter=0;exitPerimeter=0;" edge="1" parent="1" source="gyJwGBwvKr9J1ihpc6oP-2" target="VUy8_CutUVJiTHG8y4NO-6">
          <mxGeometry width="160" relative="1" as="geometry">
            <mxPoint x="488" y="299" as="sourcePoint" />
            <mxPoint x="589" y="338" as="targetPoint" />
          </mxGeometry>
        </mxCell>
        <mxCell id="VUy8_CutUVJiTHG8y4NO-12" value="&amp;lt;&amp;lt;extend&amp;gt;&amp;gt;" style="edgeStyle=none;html=1;startArrow=open;endArrow=none;startSize=12;verticalAlign=bottom;dashed=1;labelBackgroundColor=none;rounded=0;entryX=0.643;entryY=0.086;entryDx=0;entryDy=0;exitX=0.564;exitY=1.057;exitDx=0;exitDy=0;entryPerimeter=0;exitPerimeter=0;" edge="1" parent="1" source="gyJwGBwvKr9J1ihpc6oP-2" target="VUy8_CutUVJiTHG8y4NO-7">
          <mxGeometry width="160" relative="1" as="geometry">
            <mxPoint x="485" y="309" as="sourcePoint" />
            <mxPoint x="557" y="392" as="targetPoint" />
          </mxGeometry>
        </mxCell>
      </root>
    </mxGraphModel>
  </diagram>
  <diagram name="Use case room type" id="XvHOBYAVOdtGQLRACX3z">
    <mxGraphModel dx="1387" dy="797" grid="0" gridSize="10" guides="1" tooltips="1" connect="1" arrows="1" fold="1" page="1" pageScale="1" pageWidth="850" pageHeight="1100" math="0" shadow="0">
      <root>
        <mxCell id="UtBA5XERQjQRAjVt4pC6-0" />
        <mxCell id="UtBA5XERQjQRAjVt4pC6-1" parent="UtBA5XERQjQRAjVt4pC6-0" />
        <mxCell id="UtBA5XERQjQRAjVt4pC6-2" value="Admin" style="shape=umlActor;verticalLabelPosition=bottom;verticalAlign=top;html=1;outlineConnect=0;" vertex="1" parent="UtBA5XERQjQRAjVt4pC6-1">
          <mxGeometry x="171" y="259" width="30" height="60" as="geometry" />
        </mxCell>
        <mxCell id="UtBA5XERQjQRAjVt4pC6-3" value="Quản lý loại phòng" style="ellipse;whiteSpace=wrap;html=1;" vertex="1" parent="UtBA5XERQjQRAjVt4pC6-1">
          <mxGeometry x="338" y="254" width="140" height="70" as="geometry" />
        </mxCell>
        <mxCell id="UtBA5XERQjQRAjVt4pC6-4" value="" style="endArrow=none;html=1;rounded=0;entryX=0;entryY=0.5;entryDx=0;entryDy=0;" edge="1" parent="UtBA5XERQjQRAjVt4pC6-1" source="UtBA5XERQjQRAjVt4pC6-2" target="UtBA5XERQjQRAjVt4pC6-3">
          <mxGeometry width="50" height="50" relative="1" as="geometry">
            <mxPoint x="400" y="436" as="sourcePoint" />
            <mxPoint x="450" y="386" as="targetPoint" />
          </mxGeometry>
        </mxCell>
        <mxCell id="UtBA5XERQjQRAjVt4pC6-5" value="Đăng nhập" style="ellipse;whiteSpace=wrap;html=1;" vertex="1" parent="UtBA5XERQjQRAjVt4pC6-1">
          <mxGeometry x="265" y="115" width="140" height="70" as="geometry" />
        </mxCell>
        <mxCell id="UtBA5XERQjQRAjVt4pC6-6" value="&amp;lt;&amp;lt;include&amp;gt;&amp;gt;" style="edgeStyle=none;html=1;endArrow=open;verticalAlign=bottom;dashed=1;labelBackgroundColor=none;rounded=0;exitX=0.279;exitY=0.071;exitDx=0;exitDy=0;exitPerimeter=0;entryX=0.5;entryY=1;entryDx=0;entryDy=0;" edge="1" parent="UtBA5XERQjQRAjVt4pC6-1" source="UtBA5XERQjQRAjVt4pC6-3" target="UtBA5XERQjQRAjVt4pC6-5">
          <mxGeometry width="160" relative="1" as="geometry">
            <mxPoint x="345" y="411" as="sourcePoint" />
            <mxPoint x="505" y="411" as="targetPoint" />
          </mxGeometry>
        </mxCell>
        <mxCell id="UtBA5XERQjQRAjVt4pC6-8" value="Tìm kiếm loại phòng" style="ellipse;whiteSpace=wrap;html=1;" vertex="1" parent="UtBA5XERQjQRAjVt4pC6-1">
          <mxGeometry x="528" y="143" width="140" height="70" as="geometry" />
        </mxCell>
        <mxCell id="UtBA5XERQjQRAjVt4pC6-9" value="Thêm loại phòng" style="ellipse;whiteSpace=wrap;html=1;" vertex="1" parent="UtBA5XERQjQRAjVt4pC6-1">
          <mxGeometry x="579" y="293" width="140" height="70" as="geometry" />
        </mxCell>
        <mxCell id="UtBA5XERQjQRAjVt4pC6-10" value="Sửa loại phòng" style="ellipse;whiteSpace=wrap;html=1;" vertex="1" parent="UtBA5XERQjQRAjVt4pC6-1">
          <mxGeometry x="510" y="382" width="140" height="70" as="geometry" />
        </mxCell>
        <mxCell id="UtBA5XERQjQRAjVt4pC6-11" value="Xóa loại phòng" style="ellipse;whiteSpace=wrap;html=1;" vertex="1" parent="UtBA5XERQjQRAjVt4pC6-1">
          <mxGeometry x="351" y="420" width="140" height="70" as="geometry" />
        </mxCell>
        <mxCell id="UtBA5XERQjQRAjVt4pC6-13" value="&amp;lt;&amp;lt;extend&amp;gt;&amp;gt;" style="edgeStyle=none;html=1;startArrow=open;endArrow=none;startSize=12;verticalAlign=bottom;dashed=1;labelBackgroundColor=none;rounded=0;entryX=0;entryY=0.5;entryDx=0;entryDy=0;exitX=0.936;exitY=0.243;exitDx=0;exitDy=0;exitPerimeter=0;" edge="1" parent="UtBA5XERQjQRAjVt4pC6-1" source="UtBA5XERQjQRAjVt4pC6-3" target="UtBA5XERQjQRAjVt4pC6-8">
          <mxGeometry width="160" relative="1" as="geometry">
            <mxPoint x="458" y="270" as="sourcePoint" />
            <mxPoint x="526" y="185" as="targetPoint" />
          </mxGeometry>
        </mxCell>
        <mxCell id="UtBA5XERQjQRAjVt4pC6-14" value="&amp;lt;&amp;lt;extend&amp;gt;&amp;gt;" style="edgeStyle=none;html=1;startArrow=open;endArrow=none;startSize=12;verticalAlign=bottom;dashed=1;labelBackgroundColor=none;rounded=0;entryX=0;entryY=0.5;entryDx=0;entryDy=0;exitX=1;exitY=0.5;exitDx=0;exitDy=0;" edge="1" parent="UtBA5XERQjQRAjVt4pC6-1" source="UtBA5XERQjQRAjVt4pC6-3" target="UtBA5XERQjQRAjVt4pC6-9">
          <mxGeometry width="160" relative="1" as="geometry">
            <mxPoint x="479" y="281" as="sourcePoint" />
            <mxPoint x="576" y="249" as="targetPoint" />
          </mxGeometry>
        </mxCell>
        <mxCell id="UtBA5XERQjQRAjVt4pC6-15" value="&amp;lt;&amp;lt;extend&amp;gt;&amp;gt;" style="edgeStyle=none;html=1;startArrow=open;endArrow=none;startSize=12;verticalAlign=bottom;dashed=1;labelBackgroundColor=none;rounded=0;entryX=0.264;entryY=0;entryDx=0;entryDy=0;exitX=0.979;exitY=0.643;exitDx=0;exitDy=0;entryPerimeter=0;exitPerimeter=0;" edge="1" parent="UtBA5XERQjQRAjVt4pC6-1" source="UtBA5XERQjQRAjVt4pC6-3" target="UtBA5XERQjQRAjVt4pC6-10">
          <mxGeometry width="160" relative="1" as="geometry">
            <mxPoint x="488" y="299" as="sourcePoint" />
            <mxPoint x="589" y="338" as="targetPoint" />
          </mxGeometry>
        </mxCell>
        <mxCell id="UtBA5XERQjQRAjVt4pC6-16" value="&amp;lt;&amp;lt;extend&amp;gt;&amp;gt;" style="edgeStyle=none;html=1;startArrow=open;endArrow=none;startSize=12;verticalAlign=bottom;dashed=1;labelBackgroundColor=none;rounded=0;entryX=0.643;entryY=0.086;entryDx=0;entryDy=0;exitX=0.564;exitY=1.057;exitDx=0;exitDy=0;entryPerimeter=0;exitPerimeter=0;" edge="1" parent="UtBA5XERQjQRAjVt4pC6-1" source="UtBA5XERQjQRAjVt4pC6-3" target="UtBA5XERQjQRAjVt4pC6-11">
          <mxGeometry width="160" relative="1" as="geometry">
            <mxPoint x="485" y="309" as="sourcePoint" />
            <mxPoint x="557" y="392" as="targetPoint" />
          </mxGeometry>
        </mxCell>
      </root>
    </mxGraphModel>
  </diagram>
  <diagram name="use case amenities" id="3a-NEsLOTNR8IRdrH8KJ">
    <mxGraphModel dx="1387" dy="797" grid="0" gridSize="10" guides="1" tooltips="1" connect="1" arrows="1" fold="1" page="1" pageScale="1" pageWidth="850" pageHeight="1100" math="0" shadow="0">
      <root>
        <mxCell id="fPWzJuZOuRc6QZq6I05e-0" />
        <mxCell id="fPWzJuZOuRc6QZq6I05e-1" parent="fPWzJuZOuRc6QZq6I05e-0" />
        <mxCell id="fPWzJuZOuRc6QZq6I05e-2" value="Admin" style="shape=umlActor;verticalLabelPosition=bottom;verticalAlign=top;html=1;outlineConnect=0;" vertex="1" parent="fPWzJuZOuRc6QZq6I05e-1">
          <mxGeometry x="171" y="259" width="30" height="60" as="geometry" />
        </mxCell>
        <mxCell id="fPWzJuZOuRc6QZq6I05e-3" value="Quản lý loại phòng" style="ellipse;whiteSpace=wrap;html=1;" vertex="1" parent="fPWzJuZOuRc6QZq6I05e-1">
          <mxGeometry x="338" y="254" width="140" height="70" as="geometry" />
        </mxCell>
        <mxCell id="fPWzJuZOuRc6QZq6I05e-4" value="" style="endArrow=none;html=1;rounded=0;entryX=0;entryY=0.5;entryDx=0;entryDy=0;" edge="1" parent="fPWzJuZOuRc6QZq6I05e-1" source="fPWzJuZOuRc6QZq6I05e-2" target="fPWzJuZOuRc6QZq6I05e-3">
          <mxGeometry width="50" height="50" relative="1" as="geometry">
            <mxPoint x="400" y="436" as="sourcePoint" />
            <mxPoint x="450" y="386" as="targetPoint" />
          </mxGeometry>
        </mxCell>
        <mxCell id="fPWzJuZOuRc6QZq6I05e-5" value="Đăng nhập" style="ellipse;whiteSpace=wrap;html=1;" vertex="1" parent="fPWzJuZOuRc6QZq6I05e-1">
          <mxGeometry x="265" y="115" width="140" height="70" as="geometry" />
        </mxCell>
        <mxCell id="fPWzJuZOuRc6QZq6I05e-6" value="&amp;lt;&amp;lt;include&amp;gt;&amp;gt;" style="edgeStyle=none;html=1;endArrow=open;verticalAlign=bottom;dashed=1;labelBackgroundColor=none;rounded=0;exitX=0.279;exitY=0.071;exitDx=0;exitDy=0;exitPerimeter=0;entryX=0.5;entryY=1;entryDx=0;entryDy=0;" edge="1" parent="fPWzJuZOuRc6QZq6I05e-1" source="fPWzJuZOuRc6QZq6I05e-3" target="fPWzJuZOuRc6QZq6I05e-5">
          <mxGeometry width="160" relative="1" as="geometry">
            <mxPoint x="345" y="411" as="sourcePoint" />
            <mxPoint x="505" y="411" as="targetPoint" />
          </mxGeometry>
        </mxCell>
        <mxCell id="fPWzJuZOuRc6QZq6I05e-7" value="Tìm kiếm loại phòng" style="ellipse;whiteSpace=wrap;html=1;" vertex="1" parent="fPWzJuZOuRc6QZq6I05e-1">
          <mxGeometry x="528" y="143" width="140" height="70" as="geometry" />
        </mxCell>
        <mxCell id="fPWzJuZOuRc6QZq6I05e-8" value="Thêm loại phòng" style="ellipse;whiteSpace=wrap;html=1;" vertex="1" parent="fPWzJuZOuRc6QZq6I05e-1">
          <mxGeometry x="579" y="293" width="140" height="70" as="geometry" />
        </mxCell>
        <mxCell id="fPWzJuZOuRc6QZq6I05e-9" value="Sửa loại phòng" style="ellipse;whiteSpace=wrap;html=1;" vertex="1" parent="fPWzJuZOuRc6QZq6I05e-1">
          <mxGeometry x="510" y="382" width="140" height="70" as="geometry" />
        </mxCell>
        <mxCell id="fPWzJuZOuRc6QZq6I05e-10" value="Xóa loại phòng" style="ellipse;whiteSpace=wrap;html=1;" vertex="1" parent="fPWzJuZOuRc6QZq6I05e-1">
          <mxGeometry x="351" y="420" width="140" height="70" as="geometry" />
        </mxCell>
        <mxCell id="fPWzJuZOuRc6QZq6I05e-11" value="&amp;lt;&amp;lt;extend&amp;gt;&amp;gt;" style="edgeStyle=none;html=1;startArrow=open;endArrow=none;startSize=12;verticalAlign=bottom;dashed=1;labelBackgroundColor=none;rounded=0;entryX=0;entryY=0.5;entryDx=0;entryDy=0;exitX=0.936;exitY=0.243;exitDx=0;exitDy=0;exitPerimeter=0;" edge="1" parent="fPWzJuZOuRc6QZq6I05e-1" source="fPWzJuZOuRc6QZq6I05e-3" target="fPWzJuZOuRc6QZq6I05e-7">
          <mxGeometry width="160" relative="1" as="geometry">
            <mxPoint x="458" y="270" as="sourcePoint" />
            <mxPoint x="526" y="185" as="targetPoint" />
          </mxGeometry>
        </mxCell>
        <mxCell id="fPWzJuZOuRc6QZq6I05e-12" value="&amp;lt;&amp;lt;extend&amp;gt;&amp;gt;" style="edgeStyle=none;html=1;startArrow=open;endArrow=none;startSize=12;verticalAlign=bottom;dashed=1;labelBackgroundColor=none;rounded=0;entryX=0;entryY=0.5;entryDx=0;entryDy=0;exitX=1;exitY=0.5;exitDx=0;exitDy=0;" edge="1" parent="fPWzJuZOuRc6QZq6I05e-1" source="fPWzJuZOuRc6QZq6I05e-3" target="fPWzJuZOuRc6QZq6I05e-8">
          <mxGeometry width="160" relative="1" as="geometry">
            <mxPoint x="479" y="281" as="sourcePoint" />
            <mxPoint x="576" y="249" as="targetPoint" />
          </mxGeometry>
        </mxCell>
        <mxCell id="fPWzJuZOuRc6QZq6I05e-13" value="&amp;lt;&amp;lt;extend&amp;gt;&amp;gt;" style="edgeStyle=none;html=1;startArrow=open;endArrow=none;startSize=12;verticalAlign=bottom;dashed=1;labelBackgroundColor=none;rounded=0;entryX=0.264;entryY=0;entryDx=0;entryDy=0;exitX=0.979;exitY=0.643;exitDx=0;exitDy=0;entryPerimeter=0;exitPerimeter=0;" edge="1" parent="fPWzJuZOuRc6QZq6I05e-1" source="fPWzJuZOuRc6QZq6I05e-3" target="fPWzJuZOuRc6QZq6I05e-9">
          <mxGeometry width="160" relative="1" as="geometry">
            <mxPoint x="488" y="299" as="sourcePoint" />
            <mxPoint x="589" y="338" as="targetPoint" />
          </mxGeometry>
        </mxCell>
        <mxCell id="fPWzJuZOuRc6QZq6I05e-14" value="&amp;lt;&amp;lt;extend&amp;gt;&amp;gt;" style="edgeStyle=none;html=1;startArrow=open;endArrow=none;startSize=12;verticalAlign=bottom;dashed=1;labelBackgroundColor=none;rounded=0;entryX=0.643;entryY=0.086;entryDx=0;entryDy=0;exitX=0.564;exitY=1.057;exitDx=0;exitDy=0;entryPerimeter=0;exitPerimeter=0;" edge="1" parent="fPWzJuZOuRc6QZq6I05e-1" source="fPWzJuZOuRc6QZq6I05e-3" target="fPWzJuZOuRc6QZq6I05e-10">
          <mxGeometry width="160" relative="1" as="geometry">
            <mxPoint x="485" y="309" as="sourcePoint" />
            <mxPoint x="557" y="392" as="targetPoint" />
          </mxGeometry>
        </mxCell>
      </root>
    </mxGraphModel>
  </diagram>
  <diagram name="use case order" id="-9NMiSKCJi7r-2Hjloho">
    <mxGraphModel dx="1387" dy="797" grid="0" gridSize="10" guides="1" tooltips="1" connect="1" arrows="1" fold="1" page="1" pageScale="1" pageWidth="850" pageHeight="1100" math="0" shadow="0">
      <root>
        <mxCell id="96AbFXC_i9ZZfMhDJ-C8-0" />
        <mxCell id="96AbFXC_i9ZZfMhDJ-C8-1" parent="96AbFXC_i9ZZfMhDJ-C8-0" />
        <mxCell id="96AbFXC_i9ZZfMhDJ-C8-2" value="Admin" style="shape=umlActor;verticalLabelPosition=bottom;verticalAlign=top;html=1;outlineConnect=0;" vertex="1" parent="96AbFXC_i9ZZfMhDJ-C8-1">
          <mxGeometry x="171" y="259" width="30" height="60" as="geometry" />
        </mxCell>
        <mxCell id="96AbFXC_i9ZZfMhDJ-C8-3" value="Quản lý order" style="ellipse;whiteSpace=wrap;html=1;" vertex="1" parent="96AbFXC_i9ZZfMhDJ-C8-1">
          <mxGeometry x="338" y="254" width="140" height="70" as="geometry" />
        </mxCell>
        <mxCell id="96AbFXC_i9ZZfMhDJ-C8-4" value="" style="endArrow=none;html=1;rounded=0;entryX=0;entryY=0.5;entryDx=0;entryDy=0;" edge="1" parent="96AbFXC_i9ZZfMhDJ-C8-1" source="96AbFXC_i9ZZfMhDJ-C8-2" target="96AbFXC_i9ZZfMhDJ-C8-3">
          <mxGeometry width="50" height="50" relative="1" as="geometry">
            <mxPoint x="400" y="436" as="sourcePoint" />
            <mxPoint x="450" y="386" as="targetPoint" />
          </mxGeometry>
        </mxCell>
        <mxCell id="96AbFXC_i9ZZfMhDJ-C8-5" value="Đăng nhập" style="ellipse;whiteSpace=wrap;html=1;" vertex="1" parent="96AbFXC_i9ZZfMhDJ-C8-1">
          <mxGeometry x="265" y="115" width="140" height="70" as="geometry" />
        </mxCell>
        <mxCell id="96AbFXC_i9ZZfMhDJ-C8-6" value="&amp;lt;&amp;lt;include&amp;gt;&amp;gt;" style="edgeStyle=none;html=1;endArrow=open;verticalAlign=bottom;dashed=1;labelBackgroundColor=none;rounded=0;exitX=0.279;exitY=0.071;exitDx=0;exitDy=0;exitPerimeter=0;entryX=0.5;entryY=1;entryDx=0;entryDy=0;" edge="1" parent="96AbFXC_i9ZZfMhDJ-C8-1" source="96AbFXC_i9ZZfMhDJ-C8-3" target="96AbFXC_i9ZZfMhDJ-C8-5">
          <mxGeometry width="160" relative="1" as="geometry">
            <mxPoint x="345" y="411" as="sourcePoint" />
            <mxPoint x="505" y="411" as="targetPoint" />
          </mxGeometry>
        </mxCell>
        <mxCell id="96AbFXC_i9ZZfMhDJ-C8-7" value="Tìm kiếm order" style="ellipse;whiteSpace=wrap;html=1;" vertex="1" parent="96AbFXC_i9ZZfMhDJ-C8-1">
          <mxGeometry x="528" y="143" width="140" height="70" as="geometry" />
        </mxCell>
        <mxCell id="96AbFXC_i9ZZfMhDJ-C8-8" value="Sửa trạng thái order" style="ellipse;whiteSpace=wrap;html=1;" vertex="1" parent="96AbFXC_i9ZZfMhDJ-C8-1">
          <mxGeometry x="571" y="249" width="140" height="70" as="geometry" />
        </mxCell>
        <mxCell id="96AbFXC_i9ZZfMhDJ-C8-9" value="Cài đặt người giao hàng" style="ellipse;whiteSpace=wrap;html=1;" vertex="1" parent="96AbFXC_i9ZZfMhDJ-C8-1">
          <mxGeometry x="534" y="355" width="140" height="70" as="geometry" />
        </mxCell>
        <mxCell id="96AbFXC_i9ZZfMhDJ-C8-10" value="Xóa order" style="ellipse;whiteSpace=wrap;html=1;" vertex="1" parent="96AbFXC_i9ZZfMhDJ-C8-1">
          <mxGeometry x="351" y="420" width="140" height="70" as="geometry" />
        </mxCell>
        <mxCell id="96AbFXC_i9ZZfMhDJ-C8-11" value="&amp;lt;&amp;lt;extend&amp;gt;&amp;gt;" style="edgeStyle=none;html=1;startArrow=open;endArrow=none;startSize=12;verticalAlign=bottom;dashed=1;labelBackgroundColor=none;rounded=0;entryX=0;entryY=0.5;entryDx=0;entryDy=0;exitX=0.936;exitY=0.243;exitDx=0;exitDy=0;exitPerimeter=0;" edge="1" parent="96AbFXC_i9ZZfMhDJ-C8-1" source="96AbFXC_i9ZZfMhDJ-C8-3" target="96AbFXC_i9ZZfMhDJ-C8-7">
          <mxGeometry width="160" relative="1" as="geometry">
            <mxPoint x="458" y="270" as="sourcePoint" />
            <mxPoint x="526" y="185" as="targetPoint" />
          </mxGeometry>
        </mxCell>
        <mxCell id="96AbFXC_i9ZZfMhDJ-C8-12" value="&amp;lt;&amp;lt;extend&amp;gt;&amp;gt;" style="edgeStyle=none;html=1;startArrow=open;endArrow=none;startSize=12;verticalAlign=bottom;dashed=1;labelBackgroundColor=none;rounded=0;entryX=0;entryY=0.5;entryDx=0;entryDy=0;exitX=1;exitY=0.5;exitDx=0;exitDy=0;" edge="1" parent="96AbFXC_i9ZZfMhDJ-C8-1" source="96AbFXC_i9ZZfMhDJ-C8-3" target="96AbFXC_i9ZZfMhDJ-C8-8">
          <mxGeometry width="160" relative="1" as="geometry">
            <mxPoint x="479" y="281" as="sourcePoint" />
            <mxPoint x="576" y="249" as="targetPoint" />
          </mxGeometry>
        </mxCell>
        <mxCell id="96AbFXC_i9ZZfMhDJ-C8-13" value="&amp;lt;&amp;lt;extend&amp;gt;&amp;gt;" style="edgeStyle=none;html=1;startArrow=open;endArrow=none;startSize=12;verticalAlign=bottom;dashed=1;labelBackgroundColor=none;rounded=0;entryX=0.264;entryY=0;entryDx=0;entryDy=0;exitX=0.979;exitY=0.643;exitDx=0;exitDy=0;entryPerimeter=0;exitPerimeter=0;" edge="1" parent="96AbFXC_i9ZZfMhDJ-C8-1" source="96AbFXC_i9ZZfMhDJ-C8-3" target="96AbFXC_i9ZZfMhDJ-C8-9">
          <mxGeometry width="160" relative="1" as="geometry">
            <mxPoint x="488" y="299" as="sourcePoint" />
            <mxPoint x="589" y="338" as="targetPoint" />
          </mxGeometry>
        </mxCell>
        <mxCell id="96AbFXC_i9ZZfMhDJ-C8-14" value="&amp;lt;&amp;lt;extend&amp;gt;&amp;gt;" style="edgeStyle=none;html=1;startArrow=open;endArrow=none;startSize=12;verticalAlign=bottom;dashed=1;labelBackgroundColor=none;rounded=0;entryX=0.643;entryY=0.086;entryDx=0;entryDy=0;exitX=0.564;exitY=1.057;exitDx=0;exitDy=0;entryPerimeter=0;exitPerimeter=0;" edge="1" parent="96AbFXC_i9ZZfMhDJ-C8-1" source="96AbFXC_i9ZZfMhDJ-C8-3" target="96AbFXC_i9ZZfMhDJ-C8-10">
          <mxGeometry width="160" relative="1" as="geometry">
            <mxPoint x="485" y="309" as="sourcePoint" />
            <mxPoint x="557" y="392" as="targetPoint" />
          </mxGeometry>
        </mxCell>
      </root>
    </mxGraphModel>
  </diagram>
  <diagram name="use case order item" id="eaVBSBHR0ilEhBVTJ374">
    <mxGraphModel dx="1387" dy="797" grid="0" gridSize="10" guides="1" tooltips="1" connect="1" arrows="1" fold="1" page="1" pageScale="1" pageWidth="850" pageHeight="1100" math="0" shadow="0">
      <root>
        <mxCell id="5JJsxWGwNOXqotvqkWnp-0" />
        <mxCell id="5JJsxWGwNOXqotvqkWnp-1" parent="5JJsxWGwNOXqotvqkWnp-0" />
        <mxCell id="5JJsxWGwNOXqotvqkWnp-2" value="Admin" style="shape=umlActor;verticalLabelPosition=bottom;verticalAlign=top;html=1;outlineConnect=0;" vertex="1" parent="5JJsxWGwNOXqotvqkWnp-1">
          <mxGeometry x="171" y="259" width="30" height="60" as="geometry" />
        </mxCell>
        <mxCell id="5JJsxWGwNOXqotvqkWnp-3" value="Quản lý order items" style="ellipse;whiteSpace=wrap;html=1;" vertex="1" parent="5JJsxWGwNOXqotvqkWnp-1">
          <mxGeometry x="338" y="254" width="140" height="70" as="geometry" />
        </mxCell>
        <mxCell id="5JJsxWGwNOXqotvqkWnp-4" value="" style="endArrow=none;html=1;rounded=0;entryX=0;entryY=0.5;entryDx=0;entryDy=0;" edge="1" parent="5JJsxWGwNOXqotvqkWnp-1" source="5JJsxWGwNOXqotvqkWnp-2" target="5JJsxWGwNOXqotvqkWnp-3">
          <mxGeometry width="50" height="50" relative="1" as="geometry">
            <mxPoint x="400" y="436" as="sourcePoint" />
            <mxPoint x="450" y="386" as="targetPoint" />
          </mxGeometry>
        </mxCell>
        <mxCell id="5JJsxWGwNOXqotvqkWnp-5" value="Đăng nhập" style="ellipse;whiteSpace=wrap;html=1;" vertex="1" parent="5JJsxWGwNOXqotvqkWnp-1">
          <mxGeometry x="265" y="115" width="140" height="70" as="geometry" />
        </mxCell>
        <mxCell id="5JJsxWGwNOXqotvqkWnp-6" value="&amp;lt;&amp;lt;include&amp;gt;&amp;gt;" style="edgeStyle=none;html=1;endArrow=open;verticalAlign=bottom;dashed=1;labelBackgroundColor=none;rounded=0;exitX=0.279;exitY=0.071;exitDx=0;exitDy=0;exitPerimeter=0;entryX=0.5;entryY=1;entryDx=0;entryDy=0;" edge="1" parent="5JJsxWGwNOXqotvqkWnp-1" source="5JJsxWGwNOXqotvqkWnp-3" target="5JJsxWGwNOXqotvqkWnp-5">
          <mxGeometry width="160" relative="1" as="geometry">
            <mxPoint x="345" y="411" as="sourcePoint" />
            <mxPoint x="505" y="411" as="targetPoint" />
          </mxGeometry>
        </mxCell>
        <mxCell id="5JJsxWGwNOXqotvqkWnp-7" value="Tìm kiếm Item" style="ellipse;whiteSpace=wrap;html=1;" vertex="1" parent="5JJsxWGwNOXqotvqkWnp-1">
          <mxGeometry x="528" y="143" width="140" height="70" as="geometry" />
        </mxCell>
        <mxCell id="5JJsxWGwNOXqotvqkWnp-8" value="Thêm Item" style="ellipse;whiteSpace=wrap;html=1;" vertex="1" parent="5JJsxWGwNOXqotvqkWnp-1">
          <mxGeometry x="580" y="242" width="140" height="70" as="geometry" />
        </mxCell>
        <mxCell id="5JJsxWGwNOXqotvqkWnp-9" value="Sửa Item" style="ellipse;whiteSpace=wrap;html=1;" vertex="1" parent="5JJsxWGwNOXqotvqkWnp-1">
          <mxGeometry x="510" y="382" width="140" height="70" as="geometry" />
        </mxCell>
        <mxCell id="5JJsxWGwNOXqotvqkWnp-10" value="Xóa Item" style="ellipse;whiteSpace=wrap;html=1;" vertex="1" parent="5JJsxWGwNOXqotvqkWnp-1">
          <mxGeometry x="351" y="420" width="140" height="70" as="geometry" />
        </mxCell>
        <mxCell id="5JJsxWGwNOXqotvqkWnp-11" value="&amp;lt;&amp;lt;extend&amp;gt;&amp;gt;" style="edgeStyle=none;html=1;startArrow=open;endArrow=none;startSize=12;verticalAlign=bottom;dashed=1;labelBackgroundColor=none;rounded=0;entryX=0;entryY=0.5;entryDx=0;entryDy=0;exitX=0.936;exitY=0.243;exitDx=0;exitDy=0;exitPerimeter=0;" edge="1" parent="5JJsxWGwNOXqotvqkWnp-1" source="5JJsxWGwNOXqotvqkWnp-3" target="5JJsxWGwNOXqotvqkWnp-7">
          <mxGeometry width="160" relative="1" as="geometry">
            <mxPoint x="458" y="270" as="sourcePoint" />
            <mxPoint x="526" y="185" as="targetPoint" />
          </mxGeometry>
        </mxCell>
        <mxCell id="5JJsxWGwNOXqotvqkWnp-12" value="&amp;lt;&amp;lt;extend&amp;gt;&amp;gt;" style="edgeStyle=none;html=1;startArrow=open;endArrow=none;startSize=12;verticalAlign=bottom;dashed=1;labelBackgroundColor=none;rounded=0;entryX=0;entryY=0.5;entryDx=0;entryDy=0;exitX=1;exitY=0.5;exitDx=0;exitDy=0;" edge="1" parent="5JJsxWGwNOXqotvqkWnp-1" source="5JJsxWGwNOXqotvqkWnp-3" target="5JJsxWGwNOXqotvqkWnp-8">
          <mxGeometry width="160" relative="1" as="geometry">
            <mxPoint x="479" y="281" as="sourcePoint" />
            <mxPoint x="576" y="249" as="targetPoint" />
          </mxGeometry>
        </mxCell>
        <mxCell id="5JJsxWGwNOXqotvqkWnp-13" value="&amp;lt;&amp;lt;extend&amp;gt;&amp;gt;" style="edgeStyle=none;html=1;startArrow=open;endArrow=none;startSize=12;verticalAlign=bottom;dashed=1;labelBackgroundColor=none;rounded=0;entryX=0.264;entryY=0;entryDx=0;entryDy=0;exitX=0.979;exitY=0.643;exitDx=0;exitDy=0;entryPerimeter=0;exitPerimeter=0;" edge="1" parent="5JJsxWGwNOXqotvqkWnp-1" source="5JJsxWGwNOXqotvqkWnp-3" target="5JJsxWGwNOXqotvqkWnp-9">
          <mxGeometry width="160" relative="1" as="geometry">
            <mxPoint x="488" y="299" as="sourcePoint" />
            <mxPoint x="589" y="338" as="targetPoint" />
          </mxGeometry>
        </mxCell>
        <mxCell id="5JJsxWGwNOXqotvqkWnp-14" value="&amp;lt;&amp;lt;extend&amp;gt;&amp;gt;" style="edgeStyle=none;html=1;startArrow=open;endArrow=none;startSize=12;verticalAlign=bottom;dashed=1;labelBackgroundColor=none;rounded=0;entryX=0.643;entryY=0.086;entryDx=0;entryDy=0;exitX=0.564;exitY=1.057;exitDx=0;exitDy=0;entryPerimeter=0;exitPerimeter=0;" edge="1" parent="5JJsxWGwNOXqotvqkWnp-1" source="5JJsxWGwNOXqotvqkWnp-3" target="5JJsxWGwNOXqotvqkWnp-10">
          <mxGeometry width="160" relative="1" as="geometry">
            <mxPoint x="485" y="309" as="sourcePoint" />
            <mxPoint x="557" y="392" as="targetPoint" />
          </mxGeometry>
        </mxCell>
      </root>
    </mxGraphModel>
  </diagram>
  <diagram name="use case bookings" id="c-NITBHrgLvkpheWxgHE">
    <mxGraphModel dx="1387" dy="797" grid="0" gridSize="10" guides="1" tooltips="1" connect="1" arrows="1" fold="1" page="1" pageScale="1" pageWidth="850" pageHeight="1100" math="0" shadow="0">
      <root>
        <mxCell id="wD8zEVxWp3REt05MEW2R-0" />
        <mxCell id="wD8zEVxWp3REt05MEW2R-1" parent="wD8zEVxWp3REt05MEW2R-0" />
        <mxCell id="wD8zEVxWp3REt05MEW2R-2" value="Admin" style="shape=umlActor;verticalLabelPosition=bottom;verticalAlign=top;html=1;outlineConnect=0;" vertex="1" parent="wD8zEVxWp3REt05MEW2R-1">
          <mxGeometry x="171" y="259" width="30" height="60" as="geometry" />
        </mxCell>
        <mxCell id="wD8zEVxWp3REt05MEW2R-3" value="Quản lý booking" style="ellipse;whiteSpace=wrap;html=1;" vertex="1" parent="wD8zEVxWp3REt05MEW2R-1">
          <mxGeometry x="338" y="254" width="140" height="70" as="geometry" />
        </mxCell>
        <mxCell id="wD8zEVxWp3REt05MEW2R-4" value="" style="endArrow=none;html=1;rounded=0;entryX=0;entryY=0.5;entryDx=0;entryDy=0;" edge="1" parent="wD8zEVxWp3REt05MEW2R-1" source="wD8zEVxWp3REt05MEW2R-2" target="wD8zEVxWp3REt05MEW2R-3">
          <mxGeometry width="50" height="50" relative="1" as="geometry">
            <mxPoint x="400" y="436" as="sourcePoint" />
            <mxPoint x="450" y="386" as="targetPoint" />
          </mxGeometry>
        </mxCell>
        <mxCell id="wD8zEVxWp3REt05MEW2R-5" value="Đăng nhập" style="ellipse;whiteSpace=wrap;html=1;" vertex="1" parent="wD8zEVxWp3REt05MEW2R-1">
          <mxGeometry x="265" y="115" width="140" height="70" as="geometry" />
        </mxCell>
        <mxCell id="wD8zEVxWp3REt05MEW2R-6" value="&amp;lt;&amp;lt;include&amp;gt;&amp;gt;" style="edgeStyle=none;html=1;endArrow=open;verticalAlign=bottom;dashed=1;labelBackgroundColor=none;rounded=0;exitX=0.279;exitY=0.071;exitDx=0;exitDy=0;exitPerimeter=0;entryX=0.5;entryY=1;entryDx=0;entryDy=0;" edge="1" parent="wD8zEVxWp3REt05MEW2R-1" source="wD8zEVxWp3REt05MEW2R-3" target="wD8zEVxWp3REt05MEW2R-5">
          <mxGeometry width="160" relative="1" as="geometry">
            <mxPoint x="345" y="411" as="sourcePoint" />
            <mxPoint x="505" y="411" as="targetPoint" />
          </mxGeometry>
        </mxCell>
        <mxCell id="wD8zEVxWp3REt05MEW2R-7" value="Tìm kiếm bookings" style="ellipse;whiteSpace=wrap;html=1;" vertex="1" parent="wD8zEVxWp3REt05MEW2R-1">
          <mxGeometry x="528" y="143" width="140" height="70" as="geometry" />
        </mxCell>
        <mxCell id="wD8zEVxWp3REt05MEW2R-8" value="Sửa trạng thái bookings" style="ellipse;whiteSpace=wrap;html=1;" vertex="1" parent="wD8zEVxWp3REt05MEW2R-1">
          <mxGeometry x="580" y="242" width="140" height="70" as="geometry" />
        </mxCell>
        <mxCell id="wD8zEVxWp3REt05MEW2R-9" value="Sửa trạng thái giao dịch" style="ellipse;whiteSpace=wrap;html=1;" vertex="1" parent="wD8zEVxWp3REt05MEW2R-1">
          <mxGeometry x="538" y="350" width="140" height="70" as="geometry" />
        </mxCell>
        <mxCell id="wD8zEVxWp3REt05MEW2R-10" value="Xóa bookings" style="ellipse;whiteSpace=wrap;html=1;" vertex="1" parent="wD8zEVxWp3REt05MEW2R-1">
          <mxGeometry x="351" y="420" width="140" height="70" as="geometry" />
        </mxCell>
        <mxCell id="wD8zEVxWp3REt05MEW2R-11" value="&amp;lt;&amp;lt;extend&amp;gt;&amp;gt;" style="edgeStyle=none;html=1;startArrow=open;endArrow=none;startSize=12;verticalAlign=bottom;dashed=1;labelBackgroundColor=none;rounded=0;entryX=0;entryY=0.5;entryDx=0;entryDy=0;exitX=0.936;exitY=0.243;exitDx=0;exitDy=0;exitPerimeter=0;" edge="1" parent="wD8zEVxWp3REt05MEW2R-1" source="wD8zEVxWp3REt05MEW2R-3" target="wD8zEVxWp3REt05MEW2R-7">
          <mxGeometry width="160" relative="1" as="geometry">
            <mxPoint x="458" y="270" as="sourcePoint" />
            <mxPoint x="526" y="185" as="targetPoint" />
          </mxGeometry>
        </mxCell>
        <mxCell id="wD8zEVxWp3REt05MEW2R-12" value="&amp;lt;&amp;lt;extend&amp;gt;&amp;gt;" style="edgeStyle=none;html=1;startArrow=open;endArrow=none;startSize=12;verticalAlign=bottom;dashed=1;labelBackgroundColor=none;rounded=0;entryX=0;entryY=0.5;entryDx=0;entryDy=0;exitX=1;exitY=0.5;exitDx=0;exitDy=0;" edge="1" parent="wD8zEVxWp3REt05MEW2R-1" source="wD8zEVxWp3REt05MEW2R-3" target="wD8zEVxWp3REt05MEW2R-8">
          <mxGeometry width="160" relative="1" as="geometry">
            <mxPoint x="479" y="281" as="sourcePoint" />
            <mxPoint x="576" y="249" as="targetPoint" />
          </mxGeometry>
        </mxCell>
        <mxCell id="wD8zEVxWp3REt05MEW2R-13" value="&amp;lt;&amp;lt;extend&amp;gt;&amp;gt;" style="edgeStyle=none;html=1;startArrow=open;endArrow=none;startSize=12;verticalAlign=bottom;dashed=1;labelBackgroundColor=none;rounded=0;entryX=0.264;entryY=0;entryDx=0;entryDy=0;exitX=0.979;exitY=0.643;exitDx=0;exitDy=0;entryPerimeter=0;exitPerimeter=0;" edge="1" parent="wD8zEVxWp3REt05MEW2R-1" source="wD8zEVxWp3REt05MEW2R-3" target="wD8zEVxWp3REt05MEW2R-9">
          <mxGeometry width="160" relative="1" as="geometry">
            <mxPoint x="488" y="299" as="sourcePoint" />
            <mxPoint x="589" y="338" as="targetPoint" />
          </mxGeometry>
        </mxCell>
        <mxCell id="wD8zEVxWp3REt05MEW2R-14" value="&amp;lt;&amp;lt;extend&amp;gt;&amp;gt;" style="edgeStyle=none;html=1;startArrow=open;endArrow=none;startSize=12;verticalAlign=bottom;dashed=1;labelBackgroundColor=none;rounded=0;entryX=0.643;entryY=0.086;entryDx=0;entryDy=0;exitX=0.564;exitY=1.057;exitDx=0;exitDy=0;entryPerimeter=0;exitPerimeter=0;" edge="1" parent="wD8zEVxWp3REt05MEW2R-1" source="wD8zEVxWp3REt05MEW2R-3" target="wD8zEVxWp3REt05MEW2R-10">
          <mxGeometry width="160" relative="1" as="geometry">
            <mxPoint x="485" y="309" as="sourcePoint" />
            <mxPoint x="557" y="392" as="targetPoint" />
          </mxGeometry>
        </mxCell>
      </root>
    </mxGraphModel>
  </diagram>
  <diagram name="use case user" id="PwlCpzdWRabB0abnwYjV">
    <mxGraphModel dx="1387" dy="797" grid="0" gridSize="10" guides="1" tooltips="1" connect="1" arrows="1" fold="1" page="1" pageScale="1" pageWidth="850" pageHeight="1100" math="0" shadow="0">
      <root>
        <mxCell id="pT6Hz1MJ5jfILGUGCrmR-0" />
        <mxCell id="pT6Hz1MJ5jfILGUGCrmR-1" parent="pT6Hz1MJ5jfILGUGCrmR-0" />
        <mxCell id="pT6Hz1MJ5jfILGUGCrmR-2" value="Admin" style="shape=umlActor;verticalLabelPosition=bottom;verticalAlign=top;html=1;outlineConnect=0;" vertex="1" parent="pT6Hz1MJ5jfILGUGCrmR-1">
          <mxGeometry x="171" y="259" width="30" height="60" as="geometry" />
        </mxCell>
        <mxCell id="pT6Hz1MJ5jfILGUGCrmR-3" value="Quản lý user" style="ellipse;whiteSpace=wrap;html=1;" vertex="1" parent="pT6Hz1MJ5jfILGUGCrmR-1">
          <mxGeometry x="338" y="254" width="140" height="70" as="geometry" />
        </mxCell>
        <mxCell id="pT6Hz1MJ5jfILGUGCrmR-4" value="" style="endArrow=none;html=1;rounded=0;entryX=0;entryY=0.5;entryDx=0;entryDy=0;" edge="1" parent="pT6Hz1MJ5jfILGUGCrmR-1" source="pT6Hz1MJ5jfILGUGCrmR-2" target="pT6Hz1MJ5jfILGUGCrmR-3">
          <mxGeometry width="50" height="50" relative="1" as="geometry">
            <mxPoint x="400" y="436" as="sourcePoint" />
            <mxPoint x="450" y="386" as="targetPoint" />
          </mxGeometry>
        </mxCell>
        <mxCell id="pT6Hz1MJ5jfILGUGCrmR-5" value="Đăng nhập" style="ellipse;whiteSpace=wrap;html=1;" vertex="1" parent="pT6Hz1MJ5jfILGUGCrmR-1">
          <mxGeometry x="265" y="115" width="140" height="70" as="geometry" />
        </mxCell>
        <mxCell id="pT6Hz1MJ5jfILGUGCrmR-6" value="&amp;lt;&amp;lt;include&amp;gt;&amp;gt;" style="edgeStyle=none;html=1;endArrow=open;verticalAlign=bottom;dashed=1;labelBackgroundColor=none;rounded=0;exitX=0.279;exitY=0.071;exitDx=0;exitDy=0;exitPerimeter=0;entryX=0.5;entryY=1;entryDx=0;entryDy=0;" edge="1" parent="pT6Hz1MJ5jfILGUGCrmR-1" source="pT6Hz1MJ5jfILGUGCrmR-3" target="pT6Hz1MJ5jfILGUGCrmR-5">
          <mxGeometry width="160" relative="1" as="geometry">
            <mxPoint x="345" y="411" as="sourcePoint" />
            <mxPoint x="505" y="411" as="targetPoint" />
          </mxGeometry>
        </mxCell>
        <mxCell id="pT6Hz1MJ5jfILGUGCrmR-7" value="Tìm kiếm user" style="ellipse;whiteSpace=wrap;html=1;" vertex="1" parent="pT6Hz1MJ5jfILGUGCrmR-1">
          <mxGeometry x="528" y="143" width="140" height="70" as="geometry" />
        </mxCell>
        <mxCell id="pT6Hz1MJ5jfILGUGCrmR-8" value="Thay đổi mật khẩu user" style="ellipse;whiteSpace=wrap;html=1;" vertex="1" parent="pT6Hz1MJ5jfILGUGCrmR-1">
          <mxGeometry x="580" y="242" width="140" height="70" as="geometry" />
        </mxCell>
        <mxCell id="pT6Hz1MJ5jfILGUGCrmR-9" value="Xem thông tin user" style="ellipse;whiteSpace=wrap;html=1;" vertex="1" parent="pT6Hz1MJ5jfILGUGCrmR-1">
          <mxGeometry x="566" y="341" width="140" height="70" as="geometry" />
        </mxCell>
        <mxCell id="pT6Hz1MJ5jfILGUGCrmR-10" value="Quản lý giới hạn tài khoản user" style="ellipse;whiteSpace=wrap;html=1;" vertex="1" parent="pT6Hz1MJ5jfILGUGCrmR-1">
          <mxGeometry x="425" y="427" width="140" height="70" as="geometry" />
        </mxCell>
        <mxCell id="pT6Hz1MJ5jfILGUGCrmR-11" value="&amp;lt;&amp;lt;extend&amp;gt;&amp;gt;" style="edgeStyle=none;html=1;startArrow=open;endArrow=none;startSize=12;verticalAlign=bottom;dashed=1;labelBackgroundColor=none;rounded=0;entryX=0;entryY=0.5;entryDx=0;entryDy=0;exitX=0.936;exitY=0.243;exitDx=0;exitDy=0;exitPerimeter=0;" edge="1" parent="pT6Hz1MJ5jfILGUGCrmR-1" source="pT6Hz1MJ5jfILGUGCrmR-3" target="pT6Hz1MJ5jfILGUGCrmR-7">
          <mxGeometry width="160" relative="1" as="geometry">
            <mxPoint x="458" y="270" as="sourcePoint" />
            <mxPoint x="526" y="185" as="targetPoint" />
          </mxGeometry>
        </mxCell>
        <mxCell id="pT6Hz1MJ5jfILGUGCrmR-12" value="&amp;lt;&amp;lt;extend&amp;gt;&amp;gt;" style="edgeStyle=none;html=1;startArrow=open;endArrow=none;startSize=12;verticalAlign=bottom;dashed=1;labelBackgroundColor=none;rounded=0;entryX=0;entryY=0.5;entryDx=0;entryDy=0;exitX=1;exitY=0.5;exitDx=0;exitDy=0;" edge="1" parent="pT6Hz1MJ5jfILGUGCrmR-1" source="pT6Hz1MJ5jfILGUGCrmR-3" target="pT6Hz1MJ5jfILGUGCrmR-8">
          <mxGeometry width="160" relative="1" as="geometry">
            <mxPoint x="479" y="281" as="sourcePoint" />
            <mxPoint x="576" y="249" as="targetPoint" />
          </mxGeometry>
        </mxCell>
        <mxCell id="pT6Hz1MJ5jfILGUGCrmR-13" value="&amp;lt;&amp;lt;extend&amp;gt;&amp;gt;" style="edgeStyle=none;html=1;startArrow=open;endArrow=none;startSize=12;verticalAlign=bottom;dashed=1;labelBackgroundColor=none;rounded=0;entryX=0.264;entryY=0;entryDx=0;entryDy=0;exitX=0.979;exitY=0.643;exitDx=0;exitDy=0;entryPerimeter=0;exitPerimeter=0;" edge="1" parent="pT6Hz1MJ5jfILGUGCrmR-1" source="pT6Hz1MJ5jfILGUGCrmR-3" target="pT6Hz1MJ5jfILGUGCrmR-9">
          <mxGeometry width="160" relative="1" as="geometry">
            <mxPoint x="488" y="299" as="sourcePoint" />
            <mxPoint x="589" y="338" as="targetPoint" />
          </mxGeometry>
        </mxCell>
        <mxCell id="pT6Hz1MJ5jfILGUGCrmR-14" value="&amp;lt;&amp;lt;extend&amp;gt;&amp;gt;" style="edgeStyle=none;html=1;startArrow=open;endArrow=none;startSize=12;verticalAlign=bottom;dashed=1;labelBackgroundColor=none;rounded=0;entryX=0.643;entryY=0.086;entryDx=0;entryDy=0;exitX=0.564;exitY=1.057;exitDx=0;exitDy=0;entryPerimeter=0;exitPerimeter=0;" edge="1" parent="pT6Hz1MJ5jfILGUGCrmR-1" source="pT6Hz1MJ5jfILGUGCrmR-3" target="pT6Hz1MJ5jfILGUGCrmR-10">
          <mxGeometry width="160" relative="1" as="geometry">
            <mxPoint x="485" y="309" as="sourcePoint" />
            <mxPoint x="557" y="392" as="targetPoint" />
          </mxGeometry>
        </mxCell>
        <mxCell id="En5CDNVaSVQX-aQsghzB-0" value="Thay đổi quyền user" style="ellipse;whiteSpace=wrap;html=1;" vertex="1" parent="pT6Hz1MJ5jfILGUGCrmR-1">
          <mxGeometry x="204" y="427" width="140" height="70" as="geometry" />
        </mxCell>
        <mxCell id="En5CDNVaSVQX-aQsghzB-1" value="&amp;lt;&amp;lt;extend&amp;gt;&amp;gt;" style="edgeStyle=none;html=1;startArrow=open;endArrow=none;startSize=12;verticalAlign=bottom;dashed=1;labelBackgroundColor=none;rounded=0;entryX=0.771;entryY=0.114;entryDx=0;entryDy=0;exitX=0.343;exitY=0.971;exitDx=0;exitDy=0;entryPerimeter=0;exitPerimeter=0;" edge="1" parent="pT6Hz1MJ5jfILGUGCrmR-1" source="pT6Hz1MJ5jfILGUGCrmR-3" target="En5CDNVaSVQX-aQsghzB-0">
          <mxGeometry width="160" relative="1" as="geometry">
            <mxPoint x="427" y="338" as="sourcePoint" />
            <mxPoint x="525" y="443" as="targetPoint" />
          </mxGeometry>
        </mxCell>
      </root>
    </mxGraphModel>
  </diagram>
  <diagram name="use case appeals" id="PnK6QCwTjIZwKYTFu-pz">
    <mxGraphModel dx="1387" dy="797" grid="0" gridSize="10" guides="1" tooltips="1" connect="1" arrows="1" fold="1" page="1" pageScale="1" pageWidth="850" pageHeight="1100" math="0" shadow="0">
      <root>
        <mxCell id="gXAfumir38Dk-B7YayAJ-0" />
        <mxCell id="gXAfumir38Dk-B7YayAJ-1" parent="gXAfumir38Dk-B7YayAJ-0" />
        <mxCell id="gXAfumir38Dk-B7YayAJ-2" value="Admin" style="shape=umlActor;verticalLabelPosition=bottom;verticalAlign=top;html=1;outlineConnect=0;" vertex="1" parent="gXAfumir38Dk-B7YayAJ-1">
          <mxGeometry x="171" y="259" width="30" height="60" as="geometry" />
        </mxCell>
        <mxCell id="gXAfumir38Dk-B7YayAJ-3" value="Quản lý khướu nại" style="ellipse;whiteSpace=wrap;html=1;" vertex="1" parent="gXAfumir38Dk-B7YayAJ-1">
          <mxGeometry x="338" y="254" width="140" height="70" as="geometry" />
        </mxCell>
        <mxCell id="gXAfumir38Dk-B7YayAJ-4" value="" style="endArrow=none;html=1;rounded=0;entryX=0;entryY=0.5;entryDx=0;entryDy=0;" edge="1" parent="gXAfumir38Dk-B7YayAJ-1" source="gXAfumir38Dk-B7YayAJ-2" target="gXAfumir38Dk-B7YayAJ-3">
          <mxGeometry width="50" height="50" relative="1" as="geometry">
            <mxPoint x="400" y="436" as="sourcePoint" />
            <mxPoint x="450" y="386" as="targetPoint" />
          </mxGeometry>
        </mxCell>
        <mxCell id="gXAfumir38Dk-B7YayAJ-5" value="Đăng nhập" style="ellipse;whiteSpace=wrap;html=1;" vertex="1" parent="gXAfumir38Dk-B7YayAJ-1">
          <mxGeometry x="265" y="115" width="140" height="70" as="geometry" />
        </mxCell>
        <mxCell id="gXAfumir38Dk-B7YayAJ-6" value="&amp;lt;&amp;lt;include&amp;gt;&amp;gt;" style="edgeStyle=none;html=1;endArrow=open;verticalAlign=bottom;dashed=1;labelBackgroundColor=none;rounded=0;exitX=0.279;exitY=0.071;exitDx=0;exitDy=0;exitPerimeter=0;entryX=0.5;entryY=1;entryDx=0;entryDy=0;" edge="1" parent="gXAfumir38Dk-B7YayAJ-1" source="gXAfumir38Dk-B7YayAJ-3" target="gXAfumir38Dk-B7YayAJ-5">
          <mxGeometry width="160" relative="1" as="geometry">
            <mxPoint x="345" y="411" as="sourcePoint" />
            <mxPoint x="505" y="411" as="targetPoint" />
          </mxGeometry>
        </mxCell>
        <mxCell id="gXAfumir38Dk-B7YayAJ-7" value="Tìm kiếm khướu nại" style="ellipse;whiteSpace=wrap;html=1;" vertex="1" parent="gXAfumir38Dk-B7YayAJ-1">
          <mxGeometry x="523" y="140" width="140" height="70" as="geometry" />
        </mxCell>
        <mxCell id="gXAfumir38Dk-B7YayAJ-8" value="Xem chi tiết khướu nại" style="ellipse;whiteSpace=wrap;html=1;" vertex="1" parent="gXAfumir38Dk-B7YayAJ-1">
          <mxGeometry x="571" y="244" width="140" height="70" as="geometry" />
        </mxCell>
        <mxCell id="gXAfumir38Dk-B7YayAJ-9" value="Thực hiện đồng ý/hủy bỏ với khướu nại" style="ellipse;whiteSpace=wrap;html=1;" vertex="1" parent="gXAfumir38Dk-B7YayAJ-1">
          <mxGeometry x="485" y="380" width="140" height="70" as="geometry" />
        </mxCell>
        <mxCell id="gXAfumir38Dk-B7YayAJ-11" value="&amp;lt;&amp;lt;extend&amp;gt;&amp;gt;" style="edgeStyle=none;html=1;startArrow=open;endArrow=none;startSize=12;verticalAlign=bottom;dashed=1;labelBackgroundColor=none;rounded=0;entryX=0;entryY=0.5;entryDx=0;entryDy=0;exitX=0.936;exitY=0.243;exitDx=0;exitDy=0;exitPerimeter=0;" edge="1" parent="gXAfumir38Dk-B7YayAJ-1" source="gXAfumir38Dk-B7YayAJ-3" target="gXAfumir38Dk-B7YayAJ-7">
          <mxGeometry width="160" relative="1" as="geometry">
            <mxPoint x="458" y="270" as="sourcePoint" />
            <mxPoint x="526" y="185" as="targetPoint" />
          </mxGeometry>
        </mxCell>
        <mxCell id="gXAfumir38Dk-B7YayAJ-12" value="&amp;lt;&amp;lt;extend&amp;gt;&amp;gt;" style="edgeStyle=none;html=1;startArrow=open;endArrow=none;startSize=12;verticalAlign=bottom;dashed=1;labelBackgroundColor=none;rounded=0;entryX=0;entryY=0.5;entryDx=0;entryDy=0;exitX=1;exitY=0.5;exitDx=0;exitDy=0;" edge="1" parent="gXAfumir38Dk-B7YayAJ-1" source="gXAfumir38Dk-B7YayAJ-3" target="gXAfumir38Dk-B7YayAJ-8">
          <mxGeometry width="160" relative="1" as="geometry">
            <mxPoint x="479" y="281" as="sourcePoint" />
            <mxPoint x="576" y="249" as="targetPoint" />
          </mxGeometry>
        </mxCell>
        <mxCell id="gXAfumir38Dk-B7YayAJ-13" value="&amp;lt;&amp;lt;extend&amp;gt;&amp;gt;" style="edgeStyle=none;html=1;startArrow=open;endArrow=none;startSize=12;verticalAlign=bottom;dashed=1;labelBackgroundColor=none;rounded=0;entryX=0.264;entryY=0;entryDx=0;entryDy=0;exitX=0.979;exitY=0.643;exitDx=0;exitDy=0;entryPerimeter=0;exitPerimeter=0;" edge="1" parent="gXAfumir38Dk-B7YayAJ-1" source="gXAfumir38Dk-B7YayAJ-3" target="gXAfumir38Dk-B7YayAJ-9">
          <mxGeometry width="160" relative="1" as="geometry">
            <mxPoint x="488" y="299" as="sourcePoint" />
            <mxPoint x="589" y="338" as="targetPoint" />
          </mxGeometry>
        </mxCell>
      </root>
    </mxGraphModel>
  </diagram>
  <diagram name="use case staff" id="ERUURjH8ciDB2-AijswM">
    <mxGraphModel dx="1387" dy="797" grid="0" gridSize="10" guides="1" tooltips="1" connect="1" arrows="1" fold="1" page="1" pageScale="1" pageWidth="850" pageHeight="1100" math="0" shadow="0">
      <root>
        <mxCell id="0aRAgMK1MGMR2VNWIjsJ-0" />
        <mxCell id="0aRAgMK1MGMR2VNWIjsJ-1" parent="0aRAgMK1MGMR2VNWIjsJ-0" />
        <mxCell id="0aRAgMK1MGMR2VNWIjsJ-2" value="Admin" style="shape=umlActor;verticalLabelPosition=bottom;verticalAlign=top;html=1;outlineConnect=0;" vertex="1" parent="0aRAgMK1MGMR2VNWIjsJ-1">
          <mxGeometry x="171" y="259" width="30" height="60" as="geometry" />
        </mxCell>
        <mxCell id="0aRAgMK1MGMR2VNWIjsJ-3" value="Quản lý nhân viên" style="ellipse;whiteSpace=wrap;html=1;" vertex="1" parent="0aRAgMK1MGMR2VNWIjsJ-1">
          <mxGeometry x="338" y="254" width="140" height="70" as="geometry" />
        </mxCell>
        <mxCell id="0aRAgMK1MGMR2VNWIjsJ-4" value="" style="endArrow=none;html=1;rounded=0;entryX=0;entryY=0.5;entryDx=0;entryDy=0;" edge="1" parent="0aRAgMK1MGMR2VNWIjsJ-1" source="0aRAgMK1MGMR2VNWIjsJ-2" target="0aRAgMK1MGMR2VNWIjsJ-3">
          <mxGeometry width="50" height="50" relative="1" as="geometry">
            <mxPoint x="400" y="436" as="sourcePoint" />
            <mxPoint x="450" y="386" as="targetPoint" />
          </mxGeometry>
        </mxCell>
        <mxCell id="0aRAgMK1MGMR2VNWIjsJ-5" value="Đăng nhập" style="ellipse;whiteSpace=wrap;html=1;" vertex="1" parent="0aRAgMK1MGMR2VNWIjsJ-1">
          <mxGeometry x="265" y="115" width="140" height="70" as="geometry" />
        </mxCell>
        <mxCell id="0aRAgMK1MGMR2VNWIjsJ-6" value="&amp;lt;&amp;lt;include&amp;gt;&amp;gt;" style="edgeStyle=none;html=1;endArrow=open;verticalAlign=bottom;dashed=1;labelBackgroundColor=none;rounded=0;exitX=0.279;exitY=0.071;exitDx=0;exitDy=0;exitPerimeter=0;entryX=0.5;entryY=1;entryDx=0;entryDy=0;" edge="1" parent="0aRAgMK1MGMR2VNWIjsJ-1" source="0aRAgMK1MGMR2VNWIjsJ-3" target="0aRAgMK1MGMR2VNWIjsJ-5">
          <mxGeometry width="160" relative="1" as="geometry">
            <mxPoint x="345" y="411" as="sourcePoint" />
            <mxPoint x="505" y="411" as="targetPoint" />
          </mxGeometry>
        </mxCell>
        <mxCell id="0aRAgMK1MGMR2VNWIjsJ-7" value="Tìm kiếm nhân viên" style="ellipse;whiteSpace=wrap;html=1;" vertex="1" parent="0aRAgMK1MGMR2VNWIjsJ-1">
          <mxGeometry x="528" y="143" width="140" height="70" as="geometry" />
        </mxCell>
        <mxCell id="0aRAgMK1MGMR2VNWIjsJ-8" value="Thêm nhân viên" style="ellipse;whiteSpace=wrap;html=1;" vertex="1" parent="0aRAgMK1MGMR2VNWIjsJ-1">
          <mxGeometry x="580" y="242" width="140" height="70" as="geometry" />
        </mxCell>
        <mxCell id="0aRAgMK1MGMR2VNWIjsJ-9" value="Sửa nhân viên" style="ellipse;whiteSpace=wrap;html=1;" vertex="1" parent="0aRAgMK1MGMR2VNWIjsJ-1">
          <mxGeometry x="510" y="382" width="140" height="70" as="geometry" />
        </mxCell>
        <mxCell id="0aRAgMK1MGMR2VNWIjsJ-10" value="Xóa nhân viên" style="ellipse;whiteSpace=wrap;html=1;" vertex="1" parent="0aRAgMK1MGMR2VNWIjsJ-1">
          <mxGeometry x="351" y="420" width="140" height="70" as="geometry" />
        </mxCell>
        <mxCell id="0aRAgMK1MGMR2VNWIjsJ-11" value="&amp;lt;&amp;lt;extend&amp;gt;&amp;gt;" style="edgeStyle=none;html=1;startArrow=open;endArrow=none;startSize=12;verticalAlign=bottom;dashed=1;labelBackgroundColor=none;rounded=0;entryX=0;entryY=0.5;entryDx=0;entryDy=0;exitX=0.936;exitY=0.243;exitDx=0;exitDy=0;exitPerimeter=0;" edge="1" parent="0aRAgMK1MGMR2VNWIjsJ-1" source="0aRAgMK1MGMR2VNWIjsJ-3" target="0aRAgMK1MGMR2VNWIjsJ-7">
          <mxGeometry width="160" relative="1" as="geometry">
            <mxPoint x="458" y="270" as="sourcePoint" />
            <mxPoint x="526" y="185" as="targetPoint" />
          </mxGeometry>
        </mxCell>
        <mxCell id="0aRAgMK1MGMR2VNWIjsJ-12" value="&amp;lt;&amp;lt;extend&amp;gt;&amp;gt;" style="edgeStyle=none;html=1;startArrow=open;endArrow=none;startSize=12;verticalAlign=bottom;dashed=1;labelBackgroundColor=none;rounded=0;entryX=0;entryY=0.5;entryDx=0;entryDy=0;exitX=1;exitY=0.5;exitDx=0;exitDy=0;" edge="1" parent="0aRAgMK1MGMR2VNWIjsJ-1" source="0aRAgMK1MGMR2VNWIjsJ-3" target="0aRAgMK1MGMR2VNWIjsJ-8">
          <mxGeometry width="160" relative="1" as="geometry">
            <mxPoint x="479" y="281" as="sourcePoint" />
            <mxPoint x="576" y="249" as="targetPoint" />
          </mxGeometry>
        </mxCell>
        <mxCell id="0aRAgMK1MGMR2VNWIjsJ-13" value="&amp;lt;&amp;lt;extend&amp;gt;&amp;gt;" style="edgeStyle=none;html=1;startArrow=open;endArrow=none;startSize=12;verticalAlign=bottom;dashed=1;labelBackgroundColor=none;rounded=0;entryX=0.264;entryY=0;entryDx=0;entryDy=0;exitX=0.979;exitY=0.643;exitDx=0;exitDy=0;entryPerimeter=0;exitPerimeter=0;" edge="1" parent="0aRAgMK1MGMR2VNWIjsJ-1" source="0aRAgMK1MGMR2VNWIjsJ-3" target="0aRAgMK1MGMR2VNWIjsJ-9">
          <mxGeometry width="160" relative="1" as="geometry">
            <mxPoint x="488" y="299" as="sourcePoint" />
            <mxPoint x="589" y="338" as="targetPoint" />
          </mxGeometry>
        </mxCell>
        <mxCell id="0aRAgMK1MGMR2VNWIjsJ-14" value="&amp;lt;&amp;lt;extend&amp;gt;&amp;gt;" style="edgeStyle=none;html=1;startArrow=open;endArrow=none;startSize=12;verticalAlign=bottom;dashed=1;labelBackgroundColor=none;rounded=0;entryX=0.643;entryY=0.086;entryDx=0;entryDy=0;exitX=0.564;exitY=1.057;exitDx=0;exitDy=0;entryPerimeter=0;exitPerimeter=0;" edge="1" parent="0aRAgMK1MGMR2VNWIjsJ-1" source="0aRAgMK1MGMR2VNWIjsJ-3" target="0aRAgMK1MGMR2VNWIjsJ-10">
          <mxGeometry width="160" relative="1" as="geometry">
            <mxPoint x="485" y="309" as="sourcePoint" />
            <mxPoint x="557" y="392" as="targetPoint" />
          </mxGeometry>
        </mxCell>
      </root>
    </mxGraphModel>
  </diagram>
</mxfile>
